<?xml version="1.0" standalone="no"?><!DOCTYPE svg PUBLIC "-//W3C//DTD SVG 1.1//EN" "http://www.w3.org/Graphics/SVG/1.1/DTD/svg11.dtd"><svg t="1695138936940" class="icon" viewBox="0 0 1024 1024" version="1.1" xmlns="http://www.w3.org/2000/svg" p-id="16897" id="mx_n_1695138936941" xmlns:xlink="http://www.w3.org/1999/xlink" width="200" height="200"><path d="M487.281778 923.335111l71.111111 44.686222a62.805333 62.805333 0 0 0 86.698667-19.626666l289.194666-455.793778a112.156444 112.156444 0 0 0 13.539556-89.400889l-38.599111-139.377778-57.571556-6.087111" fill="#432DCA" p-id="16898" data-spm-anchor-id="a313x.search_index.0.i12.33f23a81c9P2Cv" class=""></path><path d="M316.074667 851.683556l98.275555 91.847111a66.730667 66.730667 0 0 0 93.866667-2.844445l390.997333-417.564444a117.390222 117.390222 0 0 0 31.573334-90.396445L917.162667 264.135111l-71.111111-5.688889" fill="#432DCA" p-id="16899" data-spm-anchor-id="a313x.search_index.0.i11.33f23a81c9P2Cv" class=""></path><path d="M930.645333 264.362667l-35.128889 202.609777a123.733333 123.733333 0 0 1-55.324444 83.000889l-503.893333 318.577778a70.001778 70.001778 0 0 1-95.687111-21.674667L20.053333 497.749333a69.859556 69.859556 0 0 1 21.674667-95.687111L545.621333 83.484444a120.604444 120.604444 0 0 1 98.673778-14.222222l205.596445 56.888889a115.171556 115.171556 0 0 1 81.493333 84.48" fill="#432DCA" p-id="16900" data-spm-anchor-id="a313x.search_index.0.i10.33f23a81c9P2Cv" class=""></path><path d="M227.868444 827.278222l-10.467555-6.712889a68.864 68.864 0 0 1-32.142222-60.558222" fill="#4988FD" p-id="16901"></path><path d="M867.100444 264.334222a57.827556 57.827556 0 0 1-18.688 19.427556 55.779556 55.779556 0 1 1 17.066667-76.999111c0.739556 1.507556 1.479111 2.247111 2.247111 3.754666" fill="#3973F4" p-id="16902"></path><path d="M216.718222 575.345778a53.674667 53.674667 0 0 1 23.921778-71.765334 74.353778 74.353778 0 0 1 35.811556-12.8 17.436444 17.436444 0 0 1 17.948444 20.935112v0.739555a18.289778 18.289778 0 0 1-15.701333 14.222222 33.536 33.536 0 0 0-15.701334 4.494223 15.075556 15.075556 0 0 0-6.741333 20.195555c11.207111 17.948444 66.531556-29.895111 95.687111 15.701333a54.897778 54.897778 0 0 1-25.400889 76.259556 84.536889 84.536889 0 0 1-47.104 13.454222 17.436444 17.436444 0 0 1-16.440889-20.935111v-0.739555a16.270222 16.270222 0 0 1 17.066667-13.454223 41.272889 41.272889 0 0 0 23.182222-5.973333 18.176 18.176 0 0 0 8.220445-24.661333c-10.467556-17.948444-65.792 29.895111-94.947556-15.701334z m195.868445-30.663111l4.494222 19.456a20.195556 20.195556 0 0 1-8.988445 22.442666 21.504 21.504 0 0 1-32.142222-13.454222l-22.414222-109.909333a33.194667 33.194667 0 0 1 14.961778-35.128889 33.820444 33.820444 0 0 1 38.115555 1.479111l89.713778 68.039111a20.622222 20.622222 0 0 1-1.479111 34.389333 21.447111 21.447111 0 0 1-24.661333-1.479111l-15.701334-12.714666z m-20.195556-80.725334l11.975111 46.336 24.661334-15.701333z m144.298667 41.870223l-73.272889-116.622223a17.976889 17.976889 0 0 1 5.233778-24.661333l5.973333-3.726222a17.948444 17.948444 0 0 1 24.661333 5.233778l53.077334 84.48 43.349333-27.648a17.976889 17.976889 0 0 1 24.661333 5.233777l1.507556 2.247111a17.948444 17.948444 0 0 1-5.233778 24.661334z m206.336-151.779556a17.976889 17.976889 0 0 1-5.233778 24.661333l-88.177778 56.064-83.000889-131.584 86.727111-54.584889a17.834667 17.834667 0 1 1 19.427556 29.895112l-50.830222 32.142222 12.714666 20.935111 36.636445-23.182222a16.810667 16.810667 0 1 1 17.948444 28.444444l-36.636444 23.182222 14.222222 22.442667 52.337778-32.881778a16.327111 16.327111 0 0 1 23.921778 4.494222z m0 0" fill="#ffffff" p-id="16903" data-spm-anchor-id="a313x.search_index.0.i9.33f23a81c9P2Cv" class="selected"></path><path d="M993.422222 264.391111h-176.355555c-10.439111 0-18.773333-11.975111-18.773334-26.908444s8.334222-26.908444 18.773334-26.908445h176.355555c10.439111 0 18.801778 11.975111 18.801778 26.908445s-8.334222 26.908444-18.801778 26.908444z m0 0" fill="#21D3AC" p-id="16904"></path></svg>