<?xml version="1.0" standalone="no"?><!DOCTYPE svg PUBLIC "-//W3C//DTD SVG 1.1//EN" "http://www.w3.org/Graphics/SVG/1.1/DTD/svg11.dtd"><svg t="1695271706231" class="icon" viewBox="0 0 1024 1024" version="1.1" xmlns="http://www.w3.org/2000/svg" p-id="1857" xmlns:xlink="http://www.w3.org/1999/xlink" width="28" height="28"><path d="M283.946667 659.626667m-181.333334 0a181.333333 181.333333 0 1 0 362.666667 0 181.333333 181.333333 0 1 0-362.666667 0Z" fill="#FFCA5F" p-id="1858"></path><path d="M593.28 94.293333m-42.666667 0a42.666667 42.666667 0 1 0 85.333334 0 42.666667 42.666667 0 1 0-85.333334 0Z" fill="#FFCA5F" p-id="1859"></path><path d="M770.346667 856.533333H253.653333a85.333333 85.333333 0 0 1-85.333333-85.333333V253.653333a85.333333 85.333333 0 0 1 85.333333-85.333333h270.293334v64H253.653333a21.333333 21.333333 0 0 0-21.333333 21.333333v516.693334a21.333333 21.333333 0 0 0 21.333333 21.333333h516.693334a21.333333 21.333333 0 0 0 21.333333-21.333333V500.053333h64v270.293334a85.333333 85.333333 0 0 1-85.333333 86.186666z" fill="#5C1CF7" p-id="1860"></path><path d="M582.4 441.6L820.48 203.52" fill="#FFFFFF" p-id="1861"></path><path d="M559.808 418.986667L797.866667 180.949333l45.226666 45.248-238.016 238.058667z" fill="#5C1CF7" p-id="1862"></path><path d="M856.533333 343.68h-64v-112.213333h-112.213333v-64h176.213333v176.213333z" fill="#5C1CF7" p-id="1863"></path></svg>