<?xml version="1.0" standalone="no"?><!DOCTYPE svg PUBLIC "-//W3C//DTD SVG 1.1//EN" "http://www.w3.org/Graphics/SVG/1.1/DTD/svg11.dtd"><svg t="1695128508727" class="icon" viewBox="0 0 1024 1024" version="1.1" xmlns="http://www.w3.org/2000/svg" p-id="5055" xmlns:xlink="http://www.w3.org/1999/xlink" width="200" height="200"><path d="M302.08 106.9056h-6.1952a194.0992 194.0992 0 0 0-193.8944 193.8432v6.0928A194.0992 194.0992 0 0 0 295.8848 500.736h179.456a20.48 20.48 0 0 0 20.48-20.48V300.7488A194.048 194.048 0 0 0 302.08 106.9056zM454.8608 459.776H295.8848a153.088 153.088 0 0 1-152.9344-152.9344v-6.0928a153.088 153.088 0 0 1 152.9344-152.8832H302.08a153.0368 153.0368 0 0 1 152.7808 152.8832zM475.3408 539.4944H295.8848a194.0992 194.0992 0 0 0-193.8944 193.8944v6.0928a194.0992 194.0992 0 0 0 193.8944 193.8432H302.08a194.048 194.048 0 0 0 193.8432-193.8432v-179.5072a20.48 20.48 0 0 0-20.5824-20.48z m-20.48 199.9872A153.0368 153.0368 0 0 1 302.08 892.3648h-6.1952a153.088 153.088 0 0 1-152.9344-152.8832v-6.0928a153.088 153.088 0 0 1 152.9344-152.9344h158.976zM727.04 106.9056h-6.0928a194.048 194.048 0 0 0-193.8432 193.8432V480.256a20.48 20.48 0 0 0 20.48 20.48h179.2a194.0992 194.0992 0 0 0 193.8944-193.8944v-6.0928A194.0992 194.0992 0 0 0 727.04 106.9056z m152.9344 199.936A153.088 153.088 0 0 1 727.04 459.776h-158.72V300.7488a153.0368 153.0368 0 0 1 152.8832-152.8832H727.04a153.088 153.088 0 0 1 152.9344 152.8832zM727.04 539.4944h-179.2a20.48 20.48 0 0 0-20.48 20.48v179.5072a194.048 194.048 0 0 0 193.8432 193.8432H727.04a194.0992 194.0992 0 0 0 193.8944-193.8432v-6.0928A194.0992 194.0992 0 0 0 727.04 539.4944z m152.9344 199.9872A153.088 153.088 0 0 1 727.04 892.3648h-6.0928a153.0368 153.0368 0 0 1-152.8832-152.8832v-159.0272h158.72a153.088 153.088 0 0 1 152.9344 152.9344z" fill="#432DCA" p-id="5056"></path></svg>