<?xml version="1.0" standalone="no"?><!DOCTYPE svg PUBLIC "-//W3C//DTD SVG 1.1//EN" "http://www.w3.org/Graphics/SVG/1.1/DTD/svg11.dtd"><svg t="1695128497162" class="icon" viewBox="0 0 1024 1024" version="1.1" xmlns="http://www.w3.org/2000/svg" p-id="4242" xmlns:xlink="http://www.w3.org/1999/xlink" width="200" height="200"><path d="M905.6768 212.5824h-174.08V170.496a83.1488 83.1488 0 0 0-83.0464-83.0464h-271.36A83.1488 83.1488 0 0 0 294.1952 170.496v42.0864h-174.08a20.48 20.48 0 0 0 0 40.96h55.7056v535.8592a135.2192 135.2192 0 0 0 135.0656 135.0656h404.0704A135.168 135.168 0 0 0 849.92 789.4016V253.5424h55.6544a20.48 20.48 0 0 0 0-40.96zM335.1552 170.496a42.1376 42.1376 0 0 1 42.0864-42.0864h271.36a42.1376 42.1376 0 0 1 42.0864 42.0864v42.0864H335.1552zM808.96 789.4016a94.1568 94.1568 0 0 1-94.1056 94.1056h-403.968a94.208 94.208 0 0 1-94.1056-94.1056V253.5424H808.96z" fill="#432DCA" p-id="4243"></path><path d="M379.3408 739.4304a20.48 20.48 0 0 0 20.48-20.48V402.8928a20.48 20.48 0 0 0-40.96 0v316.0576a20.48 20.48 0 0 0 20.48 20.48zM524.0832 739.4304a20.48 20.48 0 0 0 20.48-20.48V402.8928a20.48 20.48 0 0 0-40.96 0v316.0576a20.48 20.48 0 0 0 20.48 20.48zM670.72 739.4304a20.48 20.48 0 0 0 20.48-20.48V402.8928a20.48 20.48 0 1 0-40.96 0v316.0576a20.48 20.48 0 0 0 20.48 20.48z" fill="#432DCA" p-id="4244"></path></svg>