<?xml version="1.0" standalone="no"?><!DOCTYPE svg PUBLIC "-//W3C//DTD SVG 1.1//EN" "http://www.w3.org/Graphics/SVG/1.1/DTD/svg11.dtd"><svg t="1695128451995" class="icon" viewBox="0 0 1024 1024" version="1.1" xmlns="http://www.w3.org/2000/svg" p-id="1605" xmlns:xlink="http://www.w3.org/1999/xlink" width="200" height="200"><path d="M516.608 80.3328a427.5712 427.5712 0 1 0 427.5712 427.5712 428.0832 428.0832 0 0 0-427.5712-427.5712z m0 814.08a386.6112 386.6112 0 1 1 386.6112-386.5088 387.0208 387.0208 0 0 1-386.6112 386.6112z" fill="#432DCA" p-id="1606"></path><path d="M654.2336 328.9088L455.68 427.4688a28.3648 28.3648 0 0 0-13.7216 14.6432l-90.2656 220.5184a28.3136 28.3136 0 0 0 40.96 35.0208l202.7008-121.6a28.4672 28.4672 0 0 0 11.3664-12.9536l86.2208-197.4272a28.3648 28.3648 0 0 0-38.5536-36.7616z m-83.6096 214.0672L403.968 643.0208l73.8816-180.992 163.5328-80.9984z" fill="#432DCA" p-id="1607"></path></svg>