<?xml version="1.0" standalone="no"?><!DOCTYPE svg PUBLIC "-//W3C//DTD SVG 1.1//EN" "http://www.w3.org/Graphics/SVG/1.1/DTD/svg11.dtd"><svg t="1695128487822" class="icon" viewBox="0 0 1024 1024" version="1.1" xmlns="http://www.w3.org/2000/svg" p-id="3633" xmlns:xlink="http://www.w3.org/1999/xlink" width="200" height="200"><path d="M763.2384 155.904h-56.32a104.8576 104.8576 0 0 0-103.68-90.4704H427.2128a104.8576 104.8576 0 0 0-103.68 90.4704h-56.32a139.1104 139.1104 0 0 0-138.752 138.9568v503.04A139.1104 139.1104 0 0 0 267.4176 936.96h495.8208a139.1104 139.1104 0 0 0 138.9568-138.9568V294.8608a139.1104 139.1104 0 0 0-138.9568-138.9568z m-336.0256-49.5104h176.2304a63.8464 63.8464 0 0 1 63.7952 63.7952v4.5568a64 64 0 0 1-39.8848 54.528h-0.3584c-1.6896 0.6656-3.4304 1.28-5.12 1.792l-1.1776 0.3072c-1.536 0.4096-3.072 0.8192-4.608 1.1264l-2.56 0.4096c-1.1776 0-2.304 0.4096-3.4816 0.512q-3.1232 0.3072-6.2976 0.3072H427.2128c-2.0992 0-4.1984 0-6.2464-0.3072-1.2288 0-2.3552-0.3584-3.5328-0.512l-2.56-0.4096c-1.536-0.3072-3.072-0.7168-4.608-1.1264l-1.1776-0.3072c-1.7408-0.512-3.4816-1.1264-5.12-1.792h-0.3584A64 64 0 0 1 363.52 174.8992v-4.5568a63.8464 63.8464 0 0 1 63.6928-63.9488z m434.0224 691.5072A98.0992 98.0992 0 0 1 763.2384 896H267.4176a98.0992 98.0992 0 0 1-97.9968-97.9968V294.8608a98.0992 98.0992 0 0 1 97.9968-97.9968h58.5728v0.6656c0.6656 2.4576 1.3824 5.12 2.2016 7.2192a9.216 9.216 0 0 1 0.4096 1.0752 105.1648 105.1648 0 0 0 62.3616 62.5664l2.816 1.024c1.7408 0.6144 3.5328 1.1264 5.12 1.6384s2.816 0.768 4.1984 1.0752l4.7104 1.024c1.8432 0.3584 3.7376 0.6144 5.6832 0.8704s2.4576 0.3584 3.7376 0.4608c3.2256 0.3072 6.5024 0.512 9.7792 0.512h176.2304c3.2768 0 6.5536 0 9.7792-0.512 1.28 0 2.5088-0.3072 3.7376-0.4608s3.84-0.512 5.6832-0.8704l4.7104-1.024c1.3824-0.3072 2.816-0.6656 4.1984-1.0752s3.584-1.024 5.12-1.6384l2.816-1.024a105.1648 105.1648 0 0 0 62.5664-62.5664l0.4096-1.0752c0.8192-2.3552 1.536-4.7616 2.2016-7.2192v-0.6656h58.5728a98.0992 98.0992 0 0 1 97.9968 97.9968z" fill="#432DCA" p-id="3634"></path><path d="M682.5984 406.528a20.48 20.48 0 0 0-28.928 0l-121.6 121.6L410.4704 406.528a20.48 20.48 0 1 0-28.9792 28.928l121.6 121.6-121.6 121.6a20.48 20.48 0 0 0 28.9792 28.9792l121.6-121.6 121.6 121.6a20.48 20.48 0 0 0 28.928-28.9792l-121.6-121.6 121.6-121.6a20.48 20.48 0 0 0 0-28.928z" fill="#432DCA" p-id="3635"></path></svg>