<?xml version="1.0" standalone="no"?><!DOCTYPE svg PUBLIC "-//W3C//DTD SVG 1.1//EN" "http://www.w3.org/Graphics/SVG/1.1/DTD/svg11.dtd"><svg t="1695128525537" class="icon" viewBox="0 0 1024 1024" version="1.1" xmlns="http://www.w3.org/2000/svg" p-id="6223" xmlns:xlink="http://www.w3.org/1999/xlink" width="200" height="200"><path d="M779.4688 134.1952H250.2656A158.0544 158.0544 0 0 0 92.16 291.84v412.7744a158.0544 158.0544 0 0 0 157.9008 157.8496h529.408a158.0032 158.0032 0 0 0 157.8496-157.8496V291.84a158.0032 158.0032 0 0 0-157.8496-157.6448z m-529.2032 40.96h529.2032A116.992 116.992 0 0 1 896.3584 291.84v207.4112c-118.784-83.3536-223.3856-75.1616-292.5056-51.6096-110.4384 37.6832-190.8224 133.12-222.6176 219.0336C288.1024 582.144 194.56 586.9568 133.12 605.3888V291.84a117.0432 117.0432 0 0 1 117.1456-116.6848z m646.0928 529.664a116.992 116.992 0 0 1-116.8896 116.8896H250.2656A117.0432 117.0432 0 0 1 133.12 704.8192v-56.32c63.6416-22.9888 153.6-26.112 242.6368 70.7584a20.48 20.48 0 0 0 35.072-9.4208C428.9024 629.76 507.136 523.8784 617.0624 486.4c91.648-31.2832 188.0576-9.1136 279.296 63.9488z" fill="#432DCA" p-id="6224"></path><path d="M325.4784 466.8928a92.8768 92.8768 0 1 0-92.8768-92.8768 92.9792 92.9792 0 0 0 92.8768 92.8768z m0-144.7424a51.9168 51.9168 0 1 1-51.9168 51.8656 51.968 51.968 0 0 1 51.9168-51.8656z" fill="#432DCA" p-id="6225"></path></svg>