<?xml version="1.0" standalone="no"?><!DOCTYPE svg PUBLIC "-//W3C//DTD SVG 1.1//EN" "http://www.w3.org/Graphics/SVG/1.1/DTD/svg11.dtd"><svg height="300" node-id="1" sillyvg="true" template-height="300" template-width="500" version="1.1" viewBox="0 0 500 300" width="500" xmlns="http://www.w3.org/2000/svg" xmlns:xlink="http://www.w3.org/1999/xlink"><defs node-id="37"><linearGradient gradientUnits="userSpaceOnUse" id="未命名的渐变_50" node-id="5" spreadMethod="pad" x1="250" x2="250" y1="284.22" y2="191.22"><stop offset="0" stop-color="#fff9ef" stop-opacity="0"></stop><stop offset="0.17" stop-color="#fef8ef" stop-opacity="0.02"></stop><stop offset="0.32" stop-color="#fbf5ee" stop-opacity="0.06"></stop><stop offset="0.46" stop-color="#f5f1ec" stop-opacity="0.14"></stop><stop offset="0.6" stop-color="#edebea" stop-opacity="0.26"></stop><stop offset="0.74" stop-color="#e3e2e7" stop-opacity="0.4"></stop><stop offset="0.87" stop-color="#d6d8e4" stop-opacity="0.58"></stop><stop offset="0.99" stop-color="#c8cde0" stop-opacity="0.79"></stop><stop offset="1" stop-color="#c7cce0" stop-opacity="0.8"></stop></linearGradient><linearGradient gradientUnits="userSpaceOnUse" id="未命名的渐变_35" node-id="15" spreadMethod="pad" x1="244.02998" x2="299.79996" y1="-804.30994" y2="-860.08997"><stop offset="0" stop-color="#fff9ef" stop-opacity="0"></stop><stop offset="0.17" stop-color="#fef8ef" stop-opacity="0.02"></stop><stop offset="0.32" stop-color="#fbf5ee" stop-opacity="0.06"></stop><stop offset="0.46" stop-color="#f5f1ec" stop-opacity="0.14"></stop><stop offset="0.6" stop-color="#edebea" stop-opacity="0.26"></stop><stop offset="0.74" stop-color="#e3e2e7" stop-opacity="0.4"></stop><stop offset="0.87" stop-color="#d6d8e4" stop-opacity="0.58"></stop><stop offset="0.99" stop-color="#c8cde0" stop-opacity="0.79"></stop><stop offset="1" stop-color="#c7cce0" stop-opacity="0.8"></stop></linearGradient><linearGradient gradientUnits="userSpaceOnUse" id="未命名的渐变_35-2" node-id="16" spreadMethod="pad" x1="522.62994" x2="578.39996" y1="-999.4699" y2="-1055.2499"><stop offset="0" stop-color="#fff9ef" stop-opacity="0"></stop><stop offset="0.17" stop-color="#fef8ef" stop-opacity="0.02"></stop><stop offset="0.32" stop-color="#fbf5ee" stop-opacity="0.06"></stop><stop offset="0.46" stop-color="#f5f1ec" stop-opacity="0.14"></stop><stop offset="0.6" stop-color="#edebea" stop-opacity="0.26"></stop><stop offset="0.74" stop-color="#e3e2e7" stop-opacity="0.4"></stop><stop offset="0.87" stop-color="#d6d8e4" stop-opacity="0.58"></stop><stop offset="0.99" stop-color="#c8cde0" stop-opacity="0.79"></stop><stop offset="1" stop-color="#c7cce0" stop-opacity="0.8"></stop></linearGradient><linearGradient gradientUnits="userSpaceOnUse" id="未命名的渐变_35-3" node-id="17" spreadMethod="pad" x1="444.13998" x2="499.90997" y1="-1103.4199" y2="-1159.1898"><stop offset="0" stop-color="#fff9ef" stop-opacity="0"></stop><stop offset="0.17" stop-color="#fef8ef" stop-opacity="0.02"></stop><stop offset="0.32" stop-color="#fbf5ee" stop-opacity="0.06"></stop><stop offset="0.46" stop-color="#f5f1ec" stop-opacity="0.14"></stop><stop offset="0.6" stop-color="#edebea" stop-opacity="0.26"></stop><stop offset="0.74" stop-color="#e3e2e7" stop-opacity="0.4"></stop><stop offset="0.87" stop-color="#d6d8e4" stop-opacity="0.58"></stop><stop offset="0.99" stop-color="#c8cde0" stop-opacity="0.79"></stop><stop offset="1" stop-color="#c7cce0" stop-opacity="0.8"></stop></linearGradient></defs><path d="M 396.00 237.72 C 396.00 263.40 330.63 284.22 250.00 284.22 C 169.37 284.22 104.00 263.40 104.00 237.72 C 104.00 212.04 169.37 191.22 250.00 191.22 C 330.63 191.22 396.00 212.04 396.00 237.72 Z" fill="url(#未命名的渐变_50)" fill-rule="nonzero" node-id="120" stroke="none" target-height="93" target-width="292" target-x="104" target-y="191.22"></path><g node-id="163"><path d="M 108.85 89.86 L 108.85 89.86 L 110.49 91.84 L 111.70 93.94 L 112.50 96.21 L 112.90 98.58 L 112.90 100.94 L 112.50 103.31 L 111.70 105.58 L 110.49 107.68 L 108.85 109.66 L 57.94 160.57 L 55.97 162.21 L 53.86 163.41 L 51.59 164.22 L 49.22 164.62 L 46.86 164.62 L 44.49 164.22 L 42.23 163.41 L 40.12 162.21 L 38.14 160.57 L 38.14 160.57 L 36.50 158.60 L 35.30 156.49 L 34.50 154.22 L 34.09 151.85 L 34.09 149.49 L 34.50 147.12 L 35.30 144.85 L 36.50 142.75 L 38.14 140.77 L 89.05 89.86 L 91.03 88.22 L 93.14 87.02 L 95.40 86.22 L 97.78 85.81 L 100.13 85.81 L 102.51 86.22 L 104.77 87.02 L 106.88 88.22 L 108.85 89.86 Z" fill="url(#未命名的渐变_35)" fill-rule="nonzero" group-id="1" node-id="124" stroke="none" target-height="78.81137" target-width="78.811386" target-x="34.092743" target-y="85.81056"></path></g><g node-id="164"><path d="M 443.86 148.86 L 443.86 148.86 L 445.49 150.84 L 446.70 152.94 L 447.50 155.21 L 447.91 157.58 L 447.91 159.94 L 447.50 162.31 L 446.70 164.58 L 445.49 166.68 L 443.86 168.66 L 392.94 219.57 L 390.97 221.21 L 388.86 222.41 L 386.60 223.22 L 384.22 223.62 L 381.87 223.62 L 379.49 223.22 L 377.23 222.41 L 375.12 221.21 L 373.14 219.57 L 373.14 219.57 L 371.51 217.60 L 370.30 215.49 L 369.50 213.22 L 369.09 210.85 L 369.09 208.49 L 369.50 206.12 L 370.30 203.86 L 371.51 201.75 L 373.14 199.77 L 424.06 148.86 L 426.03 147.22 L 428.14 146.02 L 430.40 145.22 L 432.78 144.81 L 435.13 144.81 L 437.51 145.22 L 439.77 146.02 L 441.88 147.22 L 443.86 148.86 Z" fill="url(#未命名的渐变_35-2)" fill-rule="nonzero" group-id="2" node-id="129" stroke="none" target-height="78.81143" target-width="78.8114" target-x="369.09418" target-y="144.81061"></path></g><g node-id="165"><path d="M 461.86 19.86 L 461.86 19.86 L 463.50 21.84 L 464.70 23.94 L 465.50 26.21 L 465.91 28.58 L 465.91 30.94 L 465.50 33.31 L 464.70 35.58 L 463.50 37.69 L 461.86 39.66 L 410.95 90.57 L 408.97 92.21 L 406.87 93.42 L 404.60 94.22 L 402.23 94.62 L 399.87 94.62 L 397.50 94.22 L 395.23 93.42 L 393.12 92.21 L 391.15 90.57 L 391.15 90.57 L 389.51 88.60 L 388.31 86.49 L 387.50 84.22 L 387.10 81.85 L 387.10 79.49 L 387.50 77.12 L 388.31 74.86 L 389.51 72.75 L 391.15 70.77 L 442.06 19.86 L 444.04 18.22 L 446.14 17.02 L 448.41 16.22 L 450.78 15.81 L 453.14 15.81 L 455.51 16.22 L 457.78 17.02 L 459.88 18.22 L 461.86 19.86 Z" fill="url(#未命名的渐变_35-3)" fill-rule="nonzero" group-id="3" node-id="134" stroke="none" target-height="78.81137" target-width="78.8114" target-x="387.09888" target-y="15.811768"></path></g><g node-id="166"><path d="M 355.89 63.55 L 358.31 64.74 C 358.31 64.74 354.04 70.28 357.06 72.50 C 360.08 74.72 363.28 75.13 366.45 68.89 L 368.70 69.89 C 368.70 69.89 360.47 88.29 360.41 90.55 C 356.96 90.02 353.62 88.96 350.50 87.41 C 348.17 86.26 345.93 84.94 343.78 83.48 Z" fill="#c7cce0" fill-opacity="0.8" fill-rule="nonzero" group-id="4" node-id="139" stroke="none" target-height="27.000004" target-width="24.920013" target-x="343.78" target-y="63.55"></path><path d="M 355.47 62.92 L 357.89 64.11 C 357.89 64.11 353.62 69.65 356.64 71.87 C 359.66 74.09 362.86 74.50 366.03 68.26 L 368.28 69.26 C 368.28 69.26 360.00 87.65 360.00 89.90 C 356.55 89.37 353.21 88.31 350.09 86.76 C 347.76 85.61 345.52 84.29 343.37 82.83 Z" fill="#e2e4ed" fill-opacity="0.8" fill-rule="nonzero" group-id="4" node-id="141" stroke="none" target-height="26.980003" target-width="24.910004" target-x="343.37" target-y="62.92"></path></g><g node-id="167"><path d="M 331.77 142.25 C 331.93 142.11 346.77 134.25 347.48 134.25 C 347.48 134.25 351.75 139.76 352.48 140.89 C 353.21 142.02 354.22 143.29 354.22 143.29 L 347.64 148.87 L 344.00 146.14 L 344.56 150.84 L 336.14 154.12 Z" fill="#c7cce0" fill-opacity="0.8" fill-rule="nonzero" group-id="5" node-id="146" stroke="none" target-height="19.869995" target-width="22.450012" target-x="331.77" target-y="134.25"></path><path d="M 331.36 142.27 C 331.52 142.13 346.36 134.27 347.07 134.27 C 347.07 134.27 351.34 139.78 352.07 140.91 C 352.80 142.04 353.81 143.31 353.81 143.31 L 347.23 148.89 L 343.50 146.21 L 344.06 150.91 L 335.64 154.19 Z" fill="#e2e4ed" fill-opacity="0.8" fill-rule="nonzero" group-id="5" node-id="148" stroke="none" target-height="19.919998" target-width="22.450012" target-x="331.36" target-y="134.27"></path></g><path d="M 322.18 205.64 C 320.72 198.05 318.22 190.69 314.77 183.77 C 311.36 176.70 307.12 170.06 302.14 164.00 C 296.00 156.55 289.84 149.70 281.75 144.47 C 280.16 143.00 277.75 141.65 276.85 139.70 C 276.05 138.08 275.53 136.34 275.31 134.55 L 275.42 134.46 L 275.29 134.33 C 275.03 131.09 275.63 127.84 277.03 124.90 C 283.94 109.55 289.46 91.43 289.11 85.33 L 288.93 82.17 L 263.87 75.67 L 262.40 79.05 C 260.84 82.63 256.15 90.05 251.62 90.25 L 251.44 90.25 C 248.03 90.25 243.94 86.16 239.91 78.72 L 237.25 74.05 L 213.56 83.05 L 213.65 86.36 C 214.28 97.01 216.93 107.45 221.46 117.11 C 224.76 124.11 227.29 129.90 227.46 135.05 C 227.61 138.48 226.95 143.29 220.46 150.14 C 217.56 153.09 214.50 155.88 211.29 158.49 C 205.48 163.40 199.50 168.49 194.40 175.79 C 188.55 184.16 185.05 194.02 183.71 205.86 L 183.71 206.06 L 183.71 206.28 C 183.82 209.13 185.12 211.81 187.30 213.66 C 192.43 218.41 202.17 220.13 216.23 218.76 C 220.85 218.32 222.90 219.38 226.28 221.12 C 231.03 223.59 237.54 226.95 252.88 226.95 C 265.51 226.95 274.88 219.79 277.12 217.85 C 278.77 217.14 287.22 214.16 302.94 219.35 C 308.94 221.35 313.06 219.92 315.44 218.35 C 321.09 214.70 322.06 207.50 322.15 206.71 L 322.22 206.14 Z M 322.18 205.64" fill="#c7cce0" fill-rule="nonzero" node-id="151" stroke="none" target-height="152.9" target-width="138.51" target-x="183.71" target-y="74.05"></path><path d="M 319.18 204.07 C 317.72 196.51 315.22 189.18 311.77 182.29 C 308.36 175.26 304.12 168.67 299.14 162.65 C 293.01 155.24 285.78 148.81 277.70 143.60 C 276.11 142.14 274.80 140.39 273.85 138.45 C 273.05 136.84 272.53 135.10 272.31 133.32 L 272.42 133.23 L 272.29 133.10 C 272.03 129.87 272.63 126.63 274.03 123.71 C 280.94 108.42 286.46 90.38 286.11 84.31 L 285.93 81.16 L 260.87 74.70 L 259.40 78.07 C 257.84 81.63 253.15 89.07 248.62 89.22 L 248.44 89.22 C 245.03 89.22 240.94 85.15 236.91 77.74 L 235.24 74.66 L 210.56 82.00 L 210.65 85.30 C 211.27 95.94 213.92 106.36 218.46 116.00 C 221.76 123.00 224.29 128.74 224.46 133.86 C 224.61 137.27 223.95 142.07 217.46 148.86 C 214.56 151.80 211.50 154.57 208.29 157.17 C 202.48 162.05 196.50 167.11 191.40 174.39 C 185.55 182.73 182.05 192.54 180.71 204.33 L 180.71 204.53 L 180.71 204.75 C 180.82 207.60 182.12 210.26 184.30 212.10 C 189.43 216.83 199.17 218.55 213.23 217.18 C 217.85 216.74 219.90 217.80 223.28 219.53 C 228.03 221.99 234.54 225.34 249.88 225.34 C 262.51 225.34 271.88 218.21 274.12 216.28 C 275.77 215.58 284.22 212.61 299.94 217.78 C 305.94 219.78 310.06 218.35 312.44 216.78 C 318.09 213.15 319.06 205.98 319.15 205.19 L 319.22 204.62 Z M 319.18 204.07" fill="#e2e4ed" fill-rule="nonzero" node-id="153" stroke="none" target-height="150.68" target-width="138.51" target-x="180.71" target-y="74.66"></path><path d="M 167.00 82.18 L 172.52 68.60 C 172.88 67.74 172.52 66.75 171.69 66.32 L 165.57 63.26 C 168.34 56.53 166.95 49.48 162.19 47.10 C 157.43 44.72 150.98 47.72 147.19 54.10 L 141.14 51.00 C 140.30 50.59 139.29 50.90 138.82 51.71 L 131.26 64.27 L 131.19 64.40 C 128.19 70.40 130.73 76.03 138.19 79.78 L 150.42 85.90 L 150.42 85.90 C 157.90 89.64 163.92 88.33 166.94 82.30 Z M 160.57 50.34 C 163.57 51.85 164.31 56.83 162.41 61.67 L 150.41 55.67 C 153.15 51.24 157.59 48.84 160.59 50.34 Z" fill="#c7cce0" fill-rule="nonzero" node-id="155" stroke="none" target-height="44.92" target-width="44.68921" target-x="128.19" target-y="44.72"></path><path d="M 167.00 81.18 L 172.52 67.60 C 172.88 66.74 172.52 65.75 171.69 65.32 L 165.57 62.26 C 168.34 55.53 166.95 48.48 162.19 46.10 C 157.43 43.72 150.98 46.72 147.19 53.10 L 141.14 50.00 C 140.30 49.59 139.29 49.90 138.82 50.71 L 131.26 63.27 L 131.19 63.40 C 128.19 69.40 130.73 75.03 138.19 78.78 L 150.42 84.90 L 150.42 84.90 C 157.90 88.64 163.92 87.33 166.94 81.30 Z M 160.57 49.34 C 163.57 50.85 164.31 55.83 162.41 60.67 L 150.41 54.67 C 153.15 50.24 157.59 47.84 160.59 49.34 Z" fill="#e2e4ed" fill-rule="nonzero" node-id="157" stroke="none" target-height="44.92" target-width="44.68921" target-x="128.19" target-y="43.72"></path><path d="M 173.26 144.92 C 173.38 145.26 173.54 145.60 173.71 145.92 C 173.89 146.23 174.00 146.57 174.03 146.92 C 173.54 147.47 173.01 147.98 172.43 148.44 C 171.84 148.92 171.22 149.36 170.57 149.76 C 169.90 150.17 169.24 150.56 168.57 150.91 C 167.90 151.26 167.24 151.60 166.57 151.91 C 165.04 152.71 163.48 153.46 161.90 154.16 C 160.32 154.86 158.73 155.53 157.13 156.16 C 156.73 156.31 156.33 156.45 155.92 156.56 C 155.52 156.63 155.10 156.53 154.77 156.30 C 154.42 156.13 154.09 155.95 153.77 155.77 C 153.45 155.59 153.15 155.40 152.87 155.20 C 152.14 154.71 151.44 154.18 150.77 153.61 L 148.77 151.90 L 147.02 150.54 C 146.35 150.01 145.65 149.48 144.91 148.93 C 144.17 148.38 143.45 147.87 142.75 147.39 C 142.15 146.97 141.53 146.60 140.88 146.26 C 140.69 146.15 140.47 146.13 140.27 146.19 C 140.07 146.26 139.90 146.38 139.75 146.53 L 139.22 146.95 C 139.06 147.11 138.86 147.21 138.64 147.25 C 138.60 148.02 138.65 148.79 138.80 149.54 C 138.95 150.27 139.12 151.00 139.33 151.71 C 139.54 152.42 139.76 153.19 140.00 154.00 C 140.24 154.74 140.43 155.50 140.56 156.27 C 140.73 157.11 140.95 157.93 141.23 158.74 C 141.50 159.53 141.81 160.32 142.16 161.09 C 142.16 161.17 142.18 161.25 142.23 161.31 C 142.27 161.37 142.31 161.44 142.34 161.51 C 142.20 161.63 142.05 161.73 141.88 161.80 L 141.43 162.00 C 141.21 162.11 140.99 162.23 140.78 162.36 C 140.47 162.54 140.13 162.65 139.78 162.68 C 139.67 162.49 139.45 162.35 139.41 162.17 C 139.36 161.98 139.27 161.80 139.17 161.63 C 138.40 160.23 138.06 158.68 137.29 157.23 C 136.52 155.78 135.69 154.35 134.83 152.95 C 133.97 151.55 133.06 150.20 132.09 148.95 C 131.13 147.66 130.07 146.45 128.92 145.34 C 128.23 144.59 127.70 143.71 127.38 142.74 C 127.06 141.77 126.87 140.76 126.84 139.74 C 126.80 138.71 126.87 137.68 127.05 136.66 C 127.22 135.68 127.45 134.72 127.75 133.77 C 131.19 134.97 134.61 136.24 138.00 137.57 C 141.39 138.90 144.79 140.25 148.18 141.62 C 148.94 141.91 149.69 142.22 150.44 142.55 C 151.19 142.88 151.95 143.17 152.72 143.43 C 153.49 143.69 154.29 143.88 155.09 144.00 C 155.90 144.12 156.73 144.15 157.55 144.08 C 158.33 144.01 159.09 143.81 159.80 143.49 C 160.01 143.43 160.22 143.35 160.42 143.26 C 160.62 143.17 160.81 143.06 160.99 142.92 C 161.02 142.73 161.07 142.54 161.12 142.35 C 161.18 142.15 161.25 141.96 161.34 141.78 C 161.51 141.41 161.73 141.07 162.01 140.78 C 162.29 140.48 162.63 140.24 163.01 140.08 C 163.38 139.92 163.77 139.83 164.17 139.81 C 164.58 139.79 164.99 139.88 165.36 140.07 C 165.92 140.36 166.36 140.83 166.62 141.40 C 166.67 141.53 166.74 141.65 166.82 141.76 C 166.88 141.82 166.94 141.87 167.01 141.92 C 167.09 141.97 167.17 142.01 167.26 142.03 C 167.40 142.08 167.54 142.15 167.66 142.23 C 167.91 142.39 168.10 142.61 168.22 142.88 C 168.56 142.87 168.89 142.91 169.22 143.00 C 169.96 143.21 170.64 143.58 171.22 144.09 L 171.58 144.49 C 171.70 144.62 171.80 144.76 171.90 144.91 C 172.13 144.80 172.38 144.75 172.64 144.76 L 172.97 144.89 C 173.06 144.95 173.16 144.99 173.26 145.03 Z M 173.26 144.92" fill="#c7cce0" fill-rule="nonzero" node-id="159" stroke="none" target-height="28.909988" target-width="47.22705" target-x="126.80295" target-y="133.77"></path><path d="M 172.26 143.92 C 172.38 144.26 172.54 144.60 172.71 144.92 C 172.89 145.23 173.00 145.57 173.03 145.92 C 172.54 146.47 172.01 146.98 171.43 147.44 C 170.84 147.92 170.22 148.36 169.57 148.76 C 168.90 149.17 168.24 149.56 167.57 149.91 C 166.90 150.26 166.24 150.60 165.57 150.91 C 164.04 151.71 162.48 152.46 160.90 153.16 C 159.32 153.86 157.73 154.53 156.13 155.16 C 155.73 155.31 155.33 155.45 154.92 155.56 C 154.52 155.63 154.10 155.53 153.77 155.30 C 153.42 155.13 153.09 154.95 152.77 154.77 C 152.45 154.59 152.15 154.40 151.87 154.20 C 151.14 153.71 150.44 153.18 149.77 152.61 L 147.77 150.90 L 146.02 149.54 C 145.35 149.01 144.65 148.48 143.91 147.93 C 143.17 147.38 142.45 146.87 141.75 146.39 C 141.15 145.97 140.53 145.60 139.88 145.26 C 139.69 145.15 139.47 145.13 139.27 145.19 C 139.07 145.26 138.90 145.38 138.75 145.53 L 138.22 145.95 C 138.06 146.11 137.86 146.21 137.64 146.25 C 137.60 147.02 137.65 147.79 137.80 148.54 C 137.95 149.27 138.12 150.00 138.33 150.71 C 138.54 151.42 138.76 152.19 139.00 153.00 C 139.24 153.74 139.43 154.50 139.56 155.27 C 139.73 156.11 139.95 156.93 140.23 157.74 C 140.50 158.53 140.81 159.32 141.16 160.09 C 141.16 160.17 141.18 160.25 141.23 160.31 C 141.27 160.37 141.31 160.44 141.34 160.51 C 141.20 160.63 141.05 160.73 140.88 160.80 L 140.43 161.00 C 140.21 161.11 139.99 161.23 139.78 161.36 C 139.59 161.50 139.36 161.58 139.12 161.59 C 139.02 161.42 138.93 161.24 138.88 161.05 C 138.83 160.86 138.74 160.68 138.64 160.51 C 137.87 159.11 137.10 157.68 136.32 156.23 C 135.54 154.78 134.72 153.35 133.86 151.95 C 133.00 150.55 132.09 149.22 131.12 147.95 C 130.16 146.66 129.10 145.45 127.95 144.34 C 127.26 143.59 126.73 142.71 126.41 141.74 C 126.09 140.77 125.90 139.76 125.87 138.74 C 125.83 137.71 125.90 136.68 126.08 135.66 C 126.25 134.68 126.48 133.72 126.78 132.77 C 130.22 133.97 133.64 135.24 137.03 136.57 C 140.42 137.90 143.82 139.25 147.21 140.62 C 147.97 140.91 148.72 141.22 149.47 141.55 C 150.22 141.88 150.98 142.17 151.75 142.43 C 152.52 142.69 153.32 142.88 154.12 143.00 C 154.93 143.12 155.76 143.15 156.58 143.08 C 157.36 143.01 158.12 142.81 158.83 142.49 C 159.04 142.43 159.25 142.35 159.45 142.26 C 159.65 142.17 159.84 142.06 160.02 141.92 C 160.05 141.73 160.10 141.54 160.15 141.35 C 160.21 141.15 160.28 140.96 160.37 140.78 C 160.54 140.41 160.76 140.07 161.04 139.78 C 161.32 139.48 161.66 139.24 162.04 139.08 C 162.41 138.92 162.80 138.83 163.20 138.81 C 163.61 138.79 164.02 138.88 164.39 139.07 C 164.95 139.36 165.39 139.83 165.65 140.40 C 165.70 140.53 165.77 140.65 165.85 140.76 C 165.91 140.82 165.97 140.87 166.04 140.92 C 166.12 140.97 166.20 141.01 166.29 141.03 C 166.43 141.08 166.57 141.15 166.69 141.23 C 166.94 141.39 167.13 141.61 167.25 141.88 C 167.59 141.87 167.92 141.91 168.25 142.00 C 168.99 142.21 169.67 142.58 170.25 143.09 L 170.61 143.49 C 170.73 143.62 170.83 143.76 170.93 143.91 C 171.16 143.80 171.41 143.75 171.67 143.76 L 172.00 143.89 C 172.09 143.95 172.19 143.99 172.29 144.03 Z M 172.26 143.92" fill="#e2e4ed" fill-rule="nonzero" node-id="161" stroke="none" target-height="28.819992" target-width="47.197052" target-x="125.83295" target-y="132.77"></path></svg>