<?xml version="1.0" standalone="no"?><!DOCTYPE svg PUBLIC "-//W3C//DTD SVG 1.1//EN" "http://www.w3.org/Graphics/SVG/1.1/DTD/svg11.dtd"><svg t="1695128422390" class="icon" viewBox="0 0 1024 1024" version="1.1" xmlns="http://www.w3.org/2000/svg" p-id="1260" xmlns:xlink="http://www.w3.org/1999/xlink" width="200" height="200"><path d="M513.4336 283.3408H276.48a20.48 20.48 0 0 0 0 40.96h236.8a20.48 20.48 0 0 0 0-40.96z" fill="#432DCA" p-id="1261"></path><path d="M884.0192 347.5968L678.1952 138.24a104.8064 104.8064 0 0 0-74.3424-31.1808H254.6176a134.2976 134.2976 0 0 0-134.144 134.144v542.72a134.2464 134.2464 0 0 0 134.144 134.0928H779.776a134.2464 134.2464 0 0 0 134.0928-134.0928V420.608a103.68 103.68 0 0 0-29.8496-73.0112z m-149.0432 529.408h-436.736V721.92a12.1344 12.1344 0 0 1 12.1344-12.0832h412.4672a12.1344 12.1344 0 0 1 12.1344 12.0832z m137.9328-93.1328a93.2352 93.2352 0 0 1-93.1328 93.1328h-3.84V721.92a53.1456 53.1456 0 0 0-53.0944-53.0432H310.3744A53.1456 53.1456 0 0 0 257.28 721.92v154.9824h-2.6624a93.2352 93.2352 0 0 1-93.184-93.1328v-542.72a93.2352 93.2352 0 0 1 93.184-93.184h349.2352a63.7952 63.7952 0 0 1 45.1072 18.8928L855.04 376.32a62.9248 62.9248 0 0 1 18.1248 44.288z" fill="#432DCA" p-id="1262"></path></svg>