<?xml version="1.0" standalone="no"?><!DOCTYPE svg PUBLIC "-//W3C//DTD SVG 1.1//EN" "http://www.w3.org/Graphics/SVG/1.1/DTD/svg11.dtd"><svg t="1695128520526" class="icon" viewBox="0 0 1024 1024" version="1.1" xmlns="http://www.w3.org/2000/svg" p-id="5865" xmlns:xlink="http://www.w3.org/1999/xlink" width="200" height="200"><path d="M768.512 155.904h-56.32a104.8576 104.8576 0 0 0-103.68-90.4704H432.5376a104.8064 104.8064 0 0 0-103.68 90.4704h-56.32a139.0592 139.0592 0 0 0-138.752 138.9568v503.04A139.0592 139.0592 0 0 0 272.6912 936.96h495.8208a139.0592 139.0592 0 0 0 138.9568-138.9568V294.8608a139.0592 139.0592 0 0 0-138.9568-138.9568z m-335.9744-49.5104h176.1792a63.8976 63.8976 0 0 1 63.8464 63.7952c0 1.536 0 3.072-0.256 4.5568a64.1024 64.1024 0 0 1-39.936 54.528h-0.3584c-1.6896 0.6656-3.3792 1.28-5.12 1.792l-1.1776 0.3072c-1.536 0.4096-3.0208 0.8192-4.608 1.1264l-2.5088 0.4096c-1.1776 0-2.3552 0.4096-3.5328 0.512q-3.1744 0.3072-6.2976 0.3072H432.5376q-3.2256 0-6.2976-0.3072c-1.1776 0-2.3552-0.3584-3.5328-0.512l-2.5088-0.4096c-1.5872-0.3072-3.1232-0.7168-4.608-1.1264l-1.1776-0.3072c-1.792-0.512-3.4816-1.1264-5.12-1.792h-0.4096a64 64 0 0 1-39.8848-54.528v-4.5056a63.8976 63.8976 0 0 1 63.5392-63.8464z m433.9712 691.5072A98.048 98.048 0 0 1 768.512 896H272.6912a98.048 98.048 0 0 1-97.9456-97.9968V294.8608a98.048 98.048 0 0 1 97.9456-97.9968H331.264v0.6144c0.6656 2.4576 1.4336 5.12 2.2528 7.3216l0.3584 0.9216a105.1648 105.1648 0 0 0 62.3616 62.6688l2.816 1.024c1.792 0.6144 3.5328 1.1264 5.12 1.6384s2.816 0.768 4.2496 1.0752l4.6592 1.024c1.8944 0.3584 3.7888 0.6144 5.6832 0.8704l3.7376 0.4608c3.2256 0.3072 6.5024 0.512 9.8304 0.512h176.1792c3.328 0 6.5536 0 9.8304-0.512l3.7376-0.4608c1.8944-0.256 3.7888-0.512 5.6832-0.8704l4.6592-1.024c1.4336-0.3072 2.816-0.6656 4.2496-1.0752s3.5328-1.024 5.12-1.6384l2.7648-1.024a105.1648 105.1648 0 0 0 62.5664-62.5664 9.216 9.216 0 0 0 0.4096-1.0752c0.8192-2.3552 1.5872-4.7616 2.2016-7.2192v-0.6656h58.7776a98.048 98.048 0 0 1 97.9968 97.9968z" fill="#432DCA" p-id="5866"></path><path d="M718.6432 412.3648a20.48 20.48 0 0 0-28.672 3.9936l-177.6128 234.8032a18.3808 18.3808 0 0 1-27.2384 2.4064l-122.2144-113.2544a20.48 20.48 0 1 0-27.8528 30.0544l122.2656 113.2544a59.5968 59.5968 0 0 0 40.3968 15.8208h5.12a59.4432 59.4432 0 0 0 42.1376-23.3472l177.6128-234.8544a20.48 20.48 0 0 0-3.9424-28.8768z" fill="#432DCA" p-id="5867"></path></svg>