<?xml version="1.0" standalone="no"?><!DOCTYPE svg PUBLIC "-//W3C//DTD SVG 1.1//EN" "http://www.w3.org/Graphics/SVG/1.1/DTD/svg11.dtd"><svg t="1695128480994" class="icon" viewBox="0 0 1024 1024" version="1.1" xmlns="http://www.w3.org/2000/svg" p-id="3227" xmlns:xlink="http://www.w3.org/1999/xlink" width="200" height="200"><path d="M930.56 375.8592l-76.4928-188.8256a113.7664 113.7664 0 0 0-105.7792-71.2704H276.8896A113.7664 113.7664 0 0 0 171.52 186.112L93.0816 374.9376a150.8864 150.8864 0 0 0 30.72 164.864 169.9328 169.9328 0 0 0 23.9104 19.968V768a141.6704 141.6704 0 0 0 141.5168 141.5168h444.3648A141.6704 141.6704 0 0 0 875.52 768v-208.384a171.4688 171.4688 0 0 0 23.9616-20.1216 151.4496 151.4496 0 0 0 31.0784-163.6352zM130.9184 390.656l78.3872-188.8256a73.0624 73.0624 0 0 1 67.584-45.1072h471.3984a72.8576 72.8576 0 0 1 67.84 45.7216l76.4928 188.8256a110.4384 110.4384 0 0 1-22.528 119.3984 126.6176 126.6176 0 0 1-205.5168-36.864 20.48 20.48 0 0 0-37.3248 0 126.6176 126.6176 0 0 1-231.168-0.7168 20.48 20.48 0 0 0-37.4272 0 126.6176 126.6176 0 0 1-205.6192 37.8368 109.9776 109.9776 0 0 1-22.1184-120.2688zM834.56 768a100.6592 100.6592 0 0 1-100.5568 100.5568H289.3824A100.6592 100.6592 0 0 1 188.8256 768v-187.5968A167.7824 167.7824 0 0 0 377.344 521.728a167.5776 167.5776 0 0 0 268.544 0.512A167.7312 167.7312 0 0 0 834.56 580.3008z" fill="#432DCA" p-id="3228"></path><path d="M306.6368 372.7872h409.856a20.48 20.48 0 0 0 0-40.96h-409.6a20.48 20.48 0 1 0 0 40.96z" fill="#432DCA" p-id="3229"></path></svg>