<?xml version="1.0" standalone="no"?><!DOCTYPE svg PUBLIC "-//W3C//DTD SVG 1.1//EN" "http://www.w3.org/Graphics/SVG/1.1/DTD/svg11.dtd"><svg t="1695128499917" class="icon" viewBox="0 0 1024 1024" version="1.1" xmlns="http://www.w3.org/2000/svg" p-id="4445" xmlns:xlink="http://www.w3.org/1999/xlink" width="200" height="200"><path d="M310.784 352.8704h304.1792a20.48 20.48 0 0 0 0-40.96H310.784a20.48 20.48 0 0 0 0 40.96zM418.2016 542.72H303.9744a20.48 20.48 0 1 0 0 40.96h114.2272a20.48 20.48 0 0 0 0-40.96z" fill="#432DCA" p-id="4446"></path><path d="M798.2592 464.7936V254.1568a149.4016 149.4016 0 0 0-149.1968-149.1968H272.128A149.4016 149.4016 0 0 0 122.88 254.1568V757.76a149.3504 149.3504 0 0 0 149.1968 149.1968h376.9344a147.4048 147.4048 0 0 0 36.352-4.608 227.328 227.328 0 0 0 112.64-437.5552zM272.128 865.9968A108.3392 108.3392 0 0 1 163.84 757.76V254.1568A108.3904 108.3904 0 0 1 272.128 145.92h376.9344a108.3904 108.3904 0 0 1 108.2368 108.2368v199.168l-2.9184-0.4608-4.6592-0.7168c-2.048-0.3072-4.1472-0.5632-6.1952-0.768l-4.5568-0.512L732.16 450.56h-3.84q-5.4784-0.3072-10.9056-0.3072a227.6864 227.6864 0 0 0-227.4304 227.4304c0 4.4032 0 8.8064 0.4096 13.1584 0 1.6896 0 3.3792 0.4096 5.12 0 2.5088 0.4096 5.12 0.7168 7.5776s0.512 4.4544 0.8192 6.656l0.768 5.12a226.048 226.048 0 0 0 96.9728 151.3984z m445.1328-2.304a187.0336 187.0336 0 0 1-32.768-2.9696c-1.6896-0.3072-3.4304-0.5632-5.12-0.9216a187.0336 187.0336 0 0 1-146.3808-154.0096v-0.3584c-0.4096-2.6624-0.7168-5.376-1.024-8.0896v-1.536c0-2.4576-0.4096-5.12-0.512-7.3728v-1.9968-9.216a186.6752 186.6752 0 0 1 186.4704-186.4704c4.1472 0 8.2432 0 12.3904 0.4608h3.1232q5.5808 0.4608 11.0592 1.2288h1.3312c3.9936 0.6144 7.9872 1.3824 11.9296 2.2528l3.1232 0.7168q5.12 1.1264 9.8304 2.6112a186.4192 186.4192 0 0 1-52.7872 365.2608z" fill="#432DCA" p-id="4447"></path><path d="M817.3568 673.1776H727.04v-88.064a20.48 20.48 0 0 0-40.96 0v108.544a20.48 20.48 0 0 0 20.48 20.48h110.7968a20.48 20.48 0 0 0 0-40.96z" fill="#432DCA" p-id="4448"></path></svg>