<?xml version="1.0" standalone="no"?><!DOCTYPE svg PUBLIC "-//W3C//DTD SVG 1.1//EN" "http://www.w3.org/Graphics/SVG/1.1/DTD/svg11.dtd"><svg t="1695128517476" class="icon" viewBox="0 0 1024 1024" version="1.1" xmlns="http://www.w3.org/2000/svg" p-id="5662" xmlns:xlink="http://www.w3.org/1999/xlink" width="200" height="200"><path d="M890.2656 803.072h-54.3232v-353.28a307.5072 307.5072 0 0 0-301.1072-307.2V83.968a20.48 20.48 0 0 0-40.96 0v58.8288a307.456 307.456 0 0 0-301.1072 307.2v353.28H138.24a20.48 20.48 0 0 0 0 40.96h243.0976a133.12 133.12 0 0 0 266.24 0h242.8928a20.48 20.48 0 0 0 0-40.96z m-375.9104 124.7232a92.5184 92.5184 0 0 1-92.16-83.7632h183.9104a92.5184 92.5184 0 0 1-91.7504 83.7632z m112.1792-124.7232H233.728v-353.28a266.496 266.496 0 0 1 266.24-266.24h28.8768a266.5472 266.5472 0 0 1 266.24 266.24v353.28z" fill="#432DCA" p-id="5663"></path><path d="M697.7024 444.2112a20.48 20.48 0 0 0-20.48 20.48v181.8624a20.48 20.48 0 0 0 40.96 0V464.6912a20.48 20.48 0 0 0-20.48-20.48z" fill="#432DCA" p-id="5664"></path></svg>