<?xml version="1.0" standalone="no"?><!DOCTYPE svg PUBLIC "-//W3C//DTD SVG 1.1//EN" "http://www.w3.org/Graphics/SVG/1.1/DTD/svg11.dtd"><svg t="1695299855568" class="icon" viewBox="0 0 1024 1024" version="1.1" xmlns="http://www.w3.org/2000/svg" p-id="1875" xmlns:xlink="http://www.w3.org/1999/xlink" width="50" height="50"><path d="M327.466667 630.186667m-181.333334 0a181.333333 181.333333 0 1 0 362.666667 0 181.333333 181.333333 0 1 0-362.666667 0Z" fill="#FFCA5F" p-id="1876"></path><path d="M466.133333 171.52m-42.666666 0a42.666667 42.666667 0 1 0 85.333333 0 42.666667 42.666667 0 1 0-85.333333 0Z" fill="#FFCA5F" p-id="1877"></path><path d="M493.013333 823.253333a312.96 312.96 0 0 1-221.44-534.4 308.053333 308.053333 0 0 1 91.946667-64l26.453333 58.24a248.533333 248.533333 0 1 0 149.333334-18.133333l11.52-62.933333a313.173333 313.173333 0 0 1-56.96 621.013333z" fill="#5C1CF7" p-id="1878"></path><path d="M669.184 731.52l45.248-45.226667 186.154667 186.133334-45.248 45.248z" fill="#5C1CF7" p-id="1879"></path></svg>