<?xml version="1.0" standalone="no"?><!DOCTYPE svg PUBLIC "-//W3C//DTD SVG 1.1//EN" "http://www.w3.org/Graphics/SVG/1.1/DTD/svg11.dtd"><svg height="300" node-id="1" sillyvg="true" template-height="300" template-width="500" version="1.1" viewBox="0 0 500 300" width="500" xmlns="http://www.w3.org/2000/svg" xmlns:xlink="http://www.w3.org/1999/xlink"><defs node-id="43"><linearGradient gradientUnits="userSpaceOnUse" id="未命名的渐变_50" node-id="5" spreadMethod="pad" x1="250" x2="250" y1="284.22" y2="191.22"><stop offset="0" stop-color="#fff9ef" stop-opacity="0"></stop><stop offset="0.17" stop-color="#fef8ef" stop-opacity="0.02"></stop><stop offset="0.32" stop-color="#fbf5ee" stop-opacity="0.06"></stop><stop offset="0.46" stop-color="#f5f1ec" stop-opacity="0.14"></stop><stop offset="0.6" stop-color="#edebea" stop-opacity="0.26"></stop><stop offset="0.74" stop-color="#e3e2e7" stop-opacity="0.4"></stop><stop offset="0.87" stop-color="#d6d8e4" stop-opacity="0.58"></stop><stop offset="0.99" stop-color="#c8cde0" stop-opacity="0.79"></stop><stop offset="1" stop-color="#c7cce0" stop-opacity="0.8"></stop></linearGradient><linearGradient gradientUnits="userSpaceOnUse" id="未命名的渐变_35" node-id="15" spreadMethod="pad" x1="639.67993" x2="695.44995" y1="-529.12994" y2="-584.9099"><stop offset="0" stop-color="#fff9ef" stop-opacity="0"></stop><stop offset="0.17" stop-color="#fef8ef" stop-opacity="0.02"></stop><stop offset="0.32" stop-color="#fbf5ee" stop-opacity="0.06"></stop><stop offset="0.46" stop-color="#f5f1ec" stop-opacity="0.14"></stop><stop offset="0.6" stop-color="#edebea" stop-opacity="0.26"></stop><stop offset="0.74" stop-color="#e3e2e7" stop-opacity="0.4"></stop><stop offset="0.87" stop-color="#d6d8e4" stop-opacity="0.58"></stop><stop offset="0.99" stop-color="#c8cde0" stop-opacity="0.79"></stop><stop offset="1" stop-color="#c7cce0" stop-opacity="0.8"></stop></linearGradient><linearGradient gradientUnits="userSpaceOnUse" id="未命名的渐变_35-2" node-id="16" spreadMethod="pad" x1="918.27997" x2="974.0499" y1="-724.2899" y2="-780.06995"><stop offset="0" stop-color="#fff9ef" stop-opacity="0"></stop><stop offset="0.17" stop-color="#fef8ef" stop-opacity="0.02"></stop><stop offset="0.32" stop-color="#fbf5ee" stop-opacity="0.06"></stop><stop offset="0.46" stop-color="#f5f1ec" stop-opacity="0.14"></stop><stop offset="0.6" stop-color="#edebea" stop-opacity="0.26"></stop><stop offset="0.74" stop-color="#e3e2e7" stop-opacity="0.4"></stop><stop offset="0.87" stop-color="#d6d8e4" stop-opacity="0.58"></stop><stop offset="0.99" stop-color="#c8cde0" stop-opacity="0.79"></stop><stop offset="1" stop-color="#c7cce0" stop-opacity="0.8"></stop></linearGradient><linearGradient gradientUnits="userSpaceOnUse" id="未命名的渐变_35-3" node-id="17" spreadMethod="pad" x1="839.7899" x2="895.55994" y1="-828.2399" y2="-884.00995"><stop offset="0" stop-color="#fff9ef" stop-opacity="0"></stop><stop offset="0.17" stop-color="#fef8ef" stop-opacity="0.02"></stop><stop offset="0.32" stop-color="#fbf5ee" stop-opacity="0.06"></stop><stop offset="0.46" stop-color="#f5f1ec" stop-opacity="0.14"></stop><stop offset="0.6" stop-color="#edebea" stop-opacity="0.26"></stop><stop offset="0.74" stop-color="#e3e2e7" stop-opacity="0.4"></stop><stop offset="0.87" stop-color="#d6d8e4" stop-opacity="0.58"></stop><stop offset="0.99" stop-color="#c8cde0" stop-opacity="0.79"></stop><stop offset="1" stop-color="#c7cce0" stop-opacity="0.8"></stop></linearGradient><linearGradient gradientUnits="userSpaceOnUse" id="未命名的渐变_63" node-id="18" spreadMethod="pad" x1="133.69" x2="133.69" y1="79.4" y2="85.87"><stop offset="0" stop-color="#ffffff" stop-opacity="0.5"></stop><stop offset="0.02" stop-color="#eeeff4" stop-opacity="0.64"></stop><stop offset="0.04" stop-color="#e2e4ed" stop-opacity="0.73"></stop><stop offset="0.14" stop-color="#e2e4ed" stop-opacity="0.81"></stop><stop offset="0.29" stop-color="#e2e4ed" stop-opacity="0.89"></stop><stop offset="0.45" stop-color="#e2e4ed" stop-opacity="0.95"></stop><stop offset="0.66" stop-color="#e2e4ed" stop-opacity="0.99"></stop><stop offset="1" stop-color="#e2e4ed"></stop></linearGradient><linearGradient gradientUnits="userSpaceOnUse" id="未命名的渐变_63-2" node-id="27" spreadMethod="pad" x1="215.71" x2="215.71" y1="35.99" y2="40.54"><stop offset="0" stop-color="#ffffff" stop-opacity="0.5"></stop><stop offset="0.02" stop-color="#eeeff4" stop-opacity="0.64"></stop><stop offset="0.04" stop-color="#e2e4ed" stop-opacity="0.73"></stop><stop offset="0.14" stop-color="#e2e4ed" stop-opacity="0.81"></stop><stop offset="0.29" stop-color="#e2e4ed" stop-opacity="0.89"></stop><stop offset="0.45" stop-color="#e2e4ed" stop-opacity="0.95"></stop><stop offset="0.66" stop-color="#e2e4ed" stop-opacity="0.99"></stop><stop offset="1" stop-color="#e2e4ed"></stop></linearGradient><linearGradient gradientUnits="userSpaceOnUse" id="未命名的渐变_63-3" node-id="28" spreadMethod="pad" x1="173.1" x2="173.1" y1="63.58" y2="80.48"><stop offset="0" stop-color="#ffffff" stop-opacity="0.5"></stop><stop offset="0.02" stop-color="#eeeff4" stop-opacity="0.64"></stop><stop offset="0.04" stop-color="#e2e4ed" stop-opacity="0.73"></stop><stop offset="0.14" stop-color="#e2e4ed" stop-opacity="0.81"></stop><stop offset="0.29" stop-color="#e2e4ed" stop-opacity="0.89"></stop><stop offset="0.45" stop-color="#e2e4ed" stop-opacity="0.95"></stop><stop offset="0.66" stop-color="#e2e4ed" stop-opacity="0.99"></stop><stop offset="1" stop-color="#e2e4ed"></stop></linearGradient><linearGradient gradientTransform="matrix(0.53435235 0.84526183 -0.84526183 0.53435235 264.66 -220.29)" gradientUnits="userSpaceOnUse" id="未命名的渐变_63-4" node-id="29" spreadMethod="pad" x1="340.64" x2="340.64" y1="107.79" y2="119.77"><stop offset="0" stop-color="#ffffff" stop-opacity="0.5"></stop><stop offset="0.02" stop-color="#eeeff4" stop-opacity="0.64"></stop><stop offset="0.04" stop-color="#e2e4ed" stop-opacity="0.73"></stop><stop offset="0.14" stop-color="#e2e4ed" stop-opacity="0.81"></stop><stop offset="0.29" stop-color="#e2e4ed" stop-opacity="0.89"></stop><stop offset="0.45" stop-color="#e2e4ed" stop-opacity="0.95"></stop><stop offset="0.66" stop-color="#e2e4ed" stop-opacity="0.99"></stop><stop offset="1" stop-color="#e2e4ed"></stop></linearGradient></defs><path d="M 396.00 237.72 C 396.00 263.40 330.63 284.22 250.00 284.22 C 169.37 284.22 104.00 263.40 104.00 237.72 C 104.00 212.04 169.37 191.22 250.00 191.22 C 330.63 191.22 396.00 212.04 396.00 237.72 Z" fill="url(#未命名的渐变_50)" fill-rule="nonzero" node-id="198" stroke="none" target-height="93" target-width="292" target-x="104" target-y="191.22"></path><g node-id="227"><path d="M 108.85 89.86 L 108.85 89.86 L 110.49 91.84 L 111.70 93.94 L 112.50 96.21 L 112.90 98.58 L 112.90 100.94 L 112.50 103.31 L 111.70 105.58 L 110.49 107.68 L 108.85 109.66 L 57.94 160.57 L 55.97 162.21 L 53.86 163.41 L 51.59 164.22 L 49.22 164.62 L 46.86 164.62 L 44.49 164.22 L 42.23 163.41 L 40.12 162.21 L 38.14 160.57 L 38.14 160.57 L 36.50 158.60 L 35.30 156.49 L 34.50 154.22 L 34.09 151.85 L 34.09 149.49 L 34.50 147.12 L 35.30 144.85 L 36.50 142.75 L 38.14 140.77 L 89.05 89.86 L 91.03 88.22 L 93.14 87.02 L 95.40 86.22 L 97.78 85.81 L 100.13 85.81 L 102.51 86.22 L 104.77 87.02 L 106.88 88.22 L 108.85 89.86 Z" fill="url(#未命名的渐变_35)" fill-rule="nonzero" group-id="1" node-id="202" stroke="none" target-height="78.81137" target-width="78.811386" target-x="34.092743" target-y="85.81056"></path></g><g node-id="228"><path d="M 443.86 148.86 L 443.86 148.86 L 445.49 150.84 L 446.70 152.94 L 447.50 155.21 L 447.91 157.58 L 447.91 159.94 L 447.50 162.31 L 446.70 164.58 L 445.49 166.68 L 443.86 168.66 L 392.94 219.57 L 390.97 221.21 L 388.86 222.41 L 386.60 223.22 L 384.22 223.62 L 381.87 223.62 L 379.49 223.22 L 377.23 222.41 L 375.12 221.21 L 373.14 219.57 L 373.14 219.57 L 371.51 217.60 L 370.30 215.49 L 369.50 213.22 L 369.09 210.85 L 369.09 208.49 L 369.50 206.12 L 370.30 203.86 L 371.51 201.75 L 373.14 199.77 L 424.06 148.86 L 426.03 147.22 L 428.14 146.02 L 430.40 145.22 L 432.78 144.81 L 435.13 144.81 L 437.51 145.22 L 439.77 146.02 L 441.88 147.22 L 443.86 148.86 Z" fill="url(#未命名的渐变_35-2)" fill-rule="nonzero" group-id="2" node-id="207" stroke="none" target-height="78.81143" target-width="78.8114" target-x="369.09418" target-y="144.81061"></path></g><g node-id="229"><path d="M 461.86 19.86 L 461.86 19.86 L 463.50 21.84 L 464.70 23.94 L 465.50 26.21 L 465.91 28.58 L 465.91 30.94 L 465.50 33.31 L 464.70 35.58 L 463.50 37.69 L 461.86 39.66 L 410.95 90.57 L 408.97 92.21 L 406.87 93.42 L 404.60 94.22 L 402.23 94.62 L 399.87 94.62 L 397.50 94.22 L 395.23 93.42 L 393.12 92.21 L 391.15 90.57 L 391.15 90.57 L 389.51 88.60 L 388.31 86.49 L 387.50 84.22 L 387.10 81.85 L 387.10 79.49 L 387.50 77.12 L 388.31 74.86 L 389.51 72.75 L 391.15 70.77 L 442.06 19.86 L 444.04 18.22 L 446.14 17.02 L 448.41 16.22 L 450.78 15.81 L 453.14 15.81 L 455.51 16.22 L 457.78 17.02 L 459.88 18.22 L 461.86 19.86 Z" fill="url(#未命名的渐变_35-3)" fill-rule="nonzero" group-id="3" node-id="212" stroke="none" target-height="78.81137" target-width="78.8114" target-x="387.09888" target-y="15.811768"></path></g><path d="M 132.91 79.49 L 134.11 80.49 C 134.21 80.58 134.35 80.61 134.48 80.57 L 135.98 80.14 C 136.13 80.10 136.29 80.15 136.39 80.26 C 136.49 80.37 136.52 80.54 136.47 80.68 L 135.90 82.13 C 135.84 82.25 135.84 82.39 135.90 82.51 L 136.77 83.81 C 136.85 83.94 136.86 84.10 136.78 84.23 C 136.70 84.37 136.56 84.45 136.41 84.44 L 134.85 84.34 C 134.72 84.33 134.59 84.39 134.51 84.49 L 133.51 85.72 C 133.41 85.84 133.26 85.89 133.11 85.86 C 132.96 85.83 132.84 85.72 132.80 85.57 L 132.41 84.06 C 132.38 83.93 132.28 83.83 132.16 83.78 L 130.69 83.24 C 130.55 83.18 130.45 83.05 130.43 82.90 C 130.42 82.75 130.48 82.61 130.61 82.52 L 131.93 81.68 C 132.04 81.61 132.11 81.48 132.12 81.35 L 132.18 79.79 C 132.16 79.61 132.26 79.43 132.43 79.36 C 132.60 79.29 132.80 79.35 132.91 79.49 Z" fill="url(#未命名的渐变_63)" fill-rule="nonzero" node-id="215" stroke="none" target-height="6.5969315" target-width="6.4390106" target-x="130.41667" target-y="79.293884"></path><path d="M 235.70 71.82 L 260.39 92.31 C 262.50 94.07 265.35 94.67 268.00 93.92 L 298.88 85.20 C 301.93 84.34 305.21 85.29 307.33 87.64 C 309.45 90.00 310.05 93.35 308.88 96.30 L 297.00 126.11 C 295.99 128.66 296.29 131.54 297.82 133.82 L 315.66 160.49 C 317.43 163.13 317.54 166.54 315.96 169.29 C 314.37 172.03 311.37 173.65 308.20 173.44 L 276.20 171.38 C 273.46 171.20 270.82 172.39 269.12 174.54 L 249.27 199.75 C 247.31 202.24 244.10 203.41 241.00 202.75 C 237.89 202.09 235.43 199.73 234.65 196.65 L 226.72 165.56 C 226.04 162.90 224.10 160.75 221.53 159.80 L 191.39 148.70 C 188.41 147.60 186.32 144.91 185.98 141.76 C 185.65 138.60 187.14 135.53 189.82 133.84 L 216.94 116.69 C 219.25 115.23 220.69 112.73 220.80 110.00 L 222.00 77.91 C 222.11 74.72 224.02 71.87 226.94 70.57 C 229.86 69.28 233.26 69.76 235.70 71.82 Z" fill="#c7cce0" fill-rule="nonzero" node-id="217" stroke="none" target-height="134.13036" target-width="131.89125" target-x="185.6509" target-y="69.27562"></path><path d="M 215.16 36.05 L 216.01 36.75 C 216.08 36.81 216.18 36.83 216.27 36.80 L 217.33 36.50 C 217.43 36.48 217.54 36.51 217.61 36.59 C 217.68 36.67 217.71 36.78 217.67 36.88 L 217.27 37.88 C 217.23 37.96 217.23 38.06 217.27 38.14 L 217.88 39.05 C 217.93 39.14 217.94 39.25 217.88 39.34 C 217.83 39.43 217.73 39.49 217.63 39.49 L 216.53 39.42 C 216.44 39.42 216.35 39.46 216.29 39.53 L 215.61 40.39 C 215.54 40.47 215.43 40.51 215.33 40.49 C 215.23 40.47 215.14 40.39 215.11 40.29 L 214.84 39.23 C 214.82 39.14 214.75 39.06 214.66 39.03 L 213.66 38.65 C 213.56 38.61 213.49 38.52 213.48 38.41 C 213.46 38.31 213.51 38.20 213.60 38.14 L 214.53 37.55 C 214.61 37.50 214.66 37.41 214.66 37.32 L 214.66 36.22 C 214.67 36.11 214.75 36.01 214.86 35.97 C 214.96 35.94 215.08 35.97 215.16 36.05 Z" fill="url(#未命名的渐变_63-2)" fill-rule="nonzero" node-id="219" stroke="none" target-height="4.5723877" target-width="4.472519" target-x="213.46329" target-y="35.93733"></path><path d="M 171.06 63.82 L 174.20 66.41 C 174.48 66.64 174.85 66.72 175.20 66.61 L 179.12 65.49 C 179.51 65.38 179.93 65.50 180.20 65.80 C 180.47 66.10 180.55 66.52 180.40 66.90 L 178.90 70.69 C 178.77 71.02 178.81 71.40 179.01 71.69 L 181.28 75.07 C 181.50 75.40 181.52 75.84 181.32 76.19 C 181.12 76.54 180.74 76.74 180.34 76.72 L 176.27 76.47 C 175.92 76.45 175.59 76.60 175.37 76.87 L 172.86 80.08 C 172.61 80.40 172.20 80.55 171.81 80.46 C 171.41 80.38 171.10 80.08 171.00 79.69 L 170.00 75.74 C 169.91 75.40 169.67 75.13 169.34 75.01 L 165.51 73.61 C 165.13 73.47 164.87 73.13 164.82 72.73 C 164.78 72.33 164.97 71.94 165.31 71.72 L 168.75 69.53 C 169.04 69.34 169.23 69.03 169.24 68.68 L 169.39 64.61 C 169.42 64.23 169.65 63.89 169.99 63.73 C 170.34 63.56 170.75 63.60 171.06 63.82 Z" fill="url(#未命名的渐变_63-3)" fill-rule="nonzero" node-id="221" stroke="none" target-height="16.982315" target-width="16.740356" target-x="164.7805" target-y="63.56311"></path><path d="M 232.32 71.82 L 257.00 92.31 C 259.11 94.06 261.95 94.67 264.59 93.92 L 295.47 85.20 C 298.52 84.34 301.80 85.29 303.92 87.64 C 306.04 90.00 306.64 93.35 305.47 96.30 L 293.61 126.11 C 292.60 128.66 292.90 131.54 294.43 133.82 L 312.27 160.49 C 314.04 163.13 314.15 166.54 312.57 169.29 C 310.98 172.03 307.98 173.65 304.81 173.44 L 272.81 171.38 C 270.07 171.20 267.43 172.39 265.73 174.54 L 245.88 199.75 C 243.92 202.24 240.71 203.41 237.61 202.75 C 234.50 202.09 232.04 199.73 231.26 196.65 L 223.33 165.56 C 222.65 162.90 220.71 160.75 218.14 159.80 L 188.00 148.70 C 185.02 147.60 182.93 144.91 182.59 141.76 C 182.26 138.60 183.75 135.53 186.43 133.84 L 213.55 116.69 C 215.87 115.22 217.31 112.71 217.42 109.97 L 218.67 77.91 C 218.79 74.74 220.70 71.91 223.60 70.62 C 226.50 69.32 229.88 69.79 232.32 71.82 Z" fill="#e2e4ed" fill-rule="nonzero" node-id="223" stroke="none" target-height="134.08138" target-width="131.89127" target-x="182.2609" target-y="69.3246"></path><path d="M 354.68 124.11 L 354.32 126.98 C 354.29 127.22 354.38 127.47 354.56 127.63 L 356.71 129.55 C 356.93 129.74 357.01 130.04 356.94 130.31 C 356.86 130.59 356.63 130.80 356.35 130.85 L 353.51 131.39 C 353.27 131.43 353.06 131.59 352.96 131.82 L 351.80 134.46 C 351.68 134.72 351.43 134.89 351.15 134.90 C 350.86 134.92 350.60 134.77 350.46 134.52 L 349.07 132.00 C 348.95 131.78 348.74 131.64 348.49 131.61 L 345.62 131.32 C 345.34 131.29 345.09 131.10 344.99 130.84 C 344.89 130.57 344.95 130.27 345.15 130.06 L 347.15 127.95 C 347.32 127.77 347.39 127.52 347.34 127.28 L 346.73 124.46 C 346.67 124.18 346.77 123.89 346.99 123.71 C 347.22 123.54 347.52 123.50 347.78 123.62 L 350.39 124.85 C 350.61 124.97 350.87 124.97 351.09 124.85 L 353.59 123.40 C 353.83 123.28 354.12 123.29 354.34 123.44 C 354.57 123.59 354.70 123.84 354.68 124.11 Z" fill="url(#未命名的渐变_63-4)" fill-rule="nonzero" node-id="225" stroke="none" target-height="11.638771" target-width="12.119446" target-x="344.89383" target-y="123.27781"></path></svg>