<?xml version="1.0" standalone="no"?><!DOCTYPE svg PUBLIC "-//W3C//DTD SVG 1.1//EN" "http://www.w3.org/Graphics/SVG/1.1/DTD/svg11.dtd"><svg t="1695128456960" class="icon" viewBox="0 0 1024 1024" version="1.1" xmlns="http://www.w3.org/2000/svg" p-id="1808" xmlns:xlink="http://www.w3.org/1999/xlink" width="200" height="200"><path d="M719.104 95.7952H304.0768a164.3008 164.3008 0 0 0-163.84 164.096v497.5616a164.3008 164.3008 0 0 0 163.84 164.1472h415.0272a164.3008 164.3008 0 0 0 164.096-164.096V259.8912a164.3008 164.3008 0 0 0-164.096-164.096z m-238.4896 40.96h194.2528v225.024l-73.0112-48.7424a40.3968 40.3968 0 0 0-44.3392-0.3584l-76.8 49.7664zM180.9408 757.4528V259.8912a123.2896 123.2896 0 0 1 118.4768-122.88V880.64a123.2384 123.2384 0 0 1-118.4768-123.1872z m661.2992 0A123.2896 123.2896 0 0 1 719.104 880.64h-378.88V136.7552h99.4304V363.52A40.3456 40.3456 0 0 0 501.76 397.4656l77.5168-50.1248 73.6256 49.152a40.3968 40.3968 0 0 0 62.7712-33.5872V136.7552h3.2768a123.2896 123.2896 0 0 1 123.136 122.88z" fill="#432DCA" p-id="1809"></path></svg>