<?xml version="1.0" standalone="no"?><!DOCTYPE svg PUBLIC "-//W3C//DTD SVG 1.1//EN" "http://www.w3.org/Graphics/SVG/1.1/DTD/svg11.dtd"><svg t="1695128502880" class="icon" viewBox="0 0 1024 1024" version="1.1" xmlns="http://www.w3.org/2000/svg" p-id="4649" xmlns:xlink="http://www.w3.org/1999/xlink" width="200" height="200"><path d="M773.632 170.1888h-81.3056v-48.4864a20.48 20.48 0 0 0-40.96 0v48.4864H380.7744v-48.4864a20.48 20.48 0 1 0-40.96 0v48.4864H252.3136A162.6112 162.6112 0 0 0 89.9072 332.8v408.2176a162.6112 162.6112 0 0 0 162.4064 162.4064H773.632A162.5088 162.5088 0 0 0 916.48 818.176a157.2864 157.2864 0 0 0 6.8608-14.1824c2.048-4.864 3.8912-9.8304 5.4784-14.9504a162.9184 162.9184 0 0 0 7.2704-48.2304V332.8a162.56 162.56 0 0 0-162.4576-162.6112z m-521.3184 40.96h87.5008V264.192a20.48 20.48 0 0 0 40.96 0V211.1488h270.592V264.192a20.48 20.48 0 0 0 40.96 0V211.1488h81.3056A121.5488 121.5488 0 0 1 895.0272 332.8v23.808H130.8672V332.8a121.6 121.6 0 0 1 121.4464-121.6512z m0 651.1104a121.6 121.6 0 0 1-121.4464-121.4464V397.3632h764.16v343.4496a121.2416 121.2416 0 0 1-121.3952 121.4464z" fill="#432DCA" p-id="4650"></path><path d="M372.1728 544.512H287.9488a20.48 20.48 0 0 0 0 40.96h84.224a20.48 20.48 0 0 0 0-40.96zM557.6192 544.512H473.3952a20.48 20.48 0 0 0 0 40.96h84.224a20.48 20.48 0 0 0 0-40.96zM742.7072 544.512H658.432a20.48 20.48 0 0 0 0 40.96h84.2752a20.48 20.48 0 0 0 0-40.96zM372.1728 666.624H287.9488a20.48 20.48 0 0 0 0 40.96h84.224a20.48 20.48 0 0 0 0-40.96zM557.6192 666.624H473.3952a20.48 20.48 0 1 0 0 40.96h84.224a20.48 20.48 0 0 0 0-40.96z" fill="#432DCA" p-id="4651"></path></svg>