<?xml version="1.0" standalone="no"?><!DOCTYPE svg PUBLIC "-//W3C//DTD SVG 1.1//EN" "http://www.w3.org/Graphics/SVG/1.1/DTD/svg11.dtd"><svg t="1695128505644" class="icon" viewBox="0 0 1024 1024" version="1.1" xmlns="http://www.w3.org/2000/svg" p-id="4852" xmlns:xlink="http://www.w3.org/1999/xlink" width="200" height="200"><path d="M762.2144 160.768h-14.0288v-40.5504a20.48 20.48 0 1 0-40.96 0v40.5504H320.7168v-40.5504a20.48 20.48 0 0 0-40.96 0v40.5504h-12.8512a152.9856 152.9856 0 0 0-152.7808 152.7808v447.7952a152.9856 152.9856 0 0 0 152.7808 152.832h495.3088a152.9344 152.9344 0 0 0 152.7808-152.832V313.5488a152.9344 152.9344 0 0 0-152.7808-152.7808z m-495.3088 40.96h12.8512v60.9792a20.48 20.48 0 0 0 40.96 0V201.728h386.5088v60.9792a20.48 20.48 0 0 0 40.96 0V201.728h14.0288a111.9744 111.9744 0 0 1 111.8208 111.8208v17.9712H155.0848v-17.9712A111.9744 111.9744 0 0 1 266.9056 201.728z m495.3088 671.488H266.9056a111.9744 111.9744 0 0 1-111.8208-111.872V372.48h718.9504v388.864a111.9744 111.9744 0 0 1-111.8208 111.872z" fill="#432DCA" p-id="4853"></path><path d="M474.5216 619.0592a83.4048 83.4048 0 0 0-16.6912-11.7248 60.2112 60.2112 0 0 0 14.1312-16.896 97.5872 97.5872 0 0 0-1.4336-91.7504c-14.8992-25.2416-42.1888-38.8608-76.8-38.8096-30.3104 0-54.7328 9.6768-72.5504 28.16-29.0304 30.1568-28.1088 73.1136-28.0576 74.9056a20.48 20.48 0 1 0 40.96-1.2288s-0.3584-27.648 16.5888-45.2608c10.24-10.24 24.2176-15.36 43.3664-15.616h0.6144c19.456 0 33.0752 6.2976 40.3968 18.688a57.6 57.6 0 0 1 0.8704 51.2c-8.448 15.36-40.96 17.0496-55.7568 15.36a20.48 20.48 0 0 0-22.5792 20.48V614.4a20.48 20.48 0 0 0 23.1936 20.48c11.2128-1.536 47.4624-2.048 65.9968 14.7456 9.4208 8.4992 13.7216 20.8384 13.1584 37.7856-1.3824 43.0592-23.7568 63.1296-70.4 63.1296-0.6144 0-62.7712-4.5568-62.7712-77.1584a20.48 20.48 0 0 0-40.96 0c0 89.2416 69.888 118.1184 103.7312 118.1184 68.6592 0 109.2096-37.4784 111.36-102.7584 1.4336-36.7104-13.568-58.1632-26.368-69.6832zM640 458.1888c-63.488 0-113.2032 72.96-113.2032 166.0416s49.7152 166.0928 113.2032 166.0928 113.2032-72.96 113.2032-166.0928-49.6128-166.0416-113.2032-166.0416z m0 291.1744c-39.168 0-72.2432-57.2928-72.2432-125.1328s33.1776-125.0816 72.2432-125.0816 72.2432 57.2928 72.2432 125.0816-32.9728 125.1328-72.2432 125.1328z" fill="#432DCA" p-id="4854"></path></svg>