<?xml version="1.0" standalone="no"?><!DOCTYPE svg PUBLIC "-//W3C//DTD SVG 1.1//EN" "http://www.w3.org/Graphics/SVG/1.1/DTD/svg11.dtd"><svg t="1695128484570" class="icon" viewBox="0 0 1024 1024" version="1.1" xmlns="http://www.w3.org/2000/svg" p-id="3430" xmlns:xlink="http://www.w3.org/1999/xlink" width="200" height="200"><path d="M513.8432 460.8A162.2016 162.2016 0 1 0 675.84 623.0528 162.3552 162.3552 0 0 0 513.8432 460.8z m0 283.4432A121.2416 121.2416 0 1 1 634.88 623.0528a121.3952 121.3952 0 0 1-121.0368 121.2416z" fill="#432DCA" p-id="3431"></path><path d="M912.4864 140.9024a52.7872 52.7872 0 0 0-46.336-26.8288h-212.0192a53.3504 53.3504 0 0 0-46.592 27.3408l-75.8784 135.936q-8.8576-0.4608-17.8176-0.4608c-5.5808 0-11.1616 0-16.7424 0.4096L421.2736 141.4144a53.4016 53.4016 0 0 0-46.6432-27.3408H162.6112a53.4016 53.4016 0 0 0-46.08 80.3328L242.0736 409.088a346.112 346.112 0 1 0 544.2048 0.768L912.2816 194.56a52.8384 52.8384 0 0 0 0.2048-53.6576z m-760.6272 20.48a12.1856 12.1856 0 0 1 10.752-6.2464h212.0192a12.4928 12.4928 0 0 1 10.9056 6.3488l67.4816 120.8832a345.2416 345.2416 0 0 0-182.3232 94.5664l-118.784-203.2128a12.1856 12.1856 0 0 1-0.0512-12.4416z m361.984 766.9248A305.2032 305.2032 0 1 1 819.2 623.0528a305.5104 305.5104 0 0 1-305.3568 305.152z m363.0592-754.5856L757.76 377.6a345.9584 345.9584 0 0 0-182.016-95.0784l67.584-121.1392a12.3904 12.3904 0 0 1 10.8544-6.3488h212.0192a12.4416 12.4416 0 0 1 10.752 18.688z" fill="#432DCA" p-id="3432"></path></svg>