<?xml version="1.0" standalone="no"?><!DOCTYPE svg PUBLIC "-//W3C//DTD SVG 1.1//EN" "http://www.w3.org/Graphics/SVG/1.1/DTD/svg11.dtd"><svg t="1695128511758" class="icon" viewBox="0 0 1024 1024" version="1.1" xmlns="http://www.w3.org/2000/svg" p-id="5257" xmlns:xlink="http://www.w3.org/1999/xlink" width="200" height="200"><path d="M810.6496 215.296a414.3104 414.3104 0 0 0-291.84-123.5968H514.048a417.1776 417.1776 0 1 0 296.3968 123.7504z m-15.36 543.1296l-232.6528-229.376h327.1168a373.1968 373.1968 0 0 1-94.5152 229.376z m94.464-270.336h-350.5152V133.4272a377.5488 377.5488 0 0 1 350.464 354.6624zM138.24 508.5696A376.5248 376.5248 0 0 1 498.2784 133.12v371.2512a20.48 20.48 0 0 0 8.8064 21.0432 20.48 20.48 0 0 0 5.8368 11.9808l253.3888 249.856A375.9616 375.9616 0 0 1 138.24 508.5696z" fill="#432DCA" p-id="5258"></path></svg>