<?xml version="1.0" standalone="no"?><!DOCTYPE svg PUBLIC "-//W3C//DTD SVG 1.1//EN" "http://www.w3.org/Graphics/SVG/1.1/DTD/svg11.dtd"><svg t="1695139184743" class="icon" viewBox="0 0 1316 1024" version="1.1" xmlns="http://www.w3.org/2000/svg" p-id="20549" xmlns:xlink="http://www.w3.org/1999/xlink" width="257.03125" height="200"><path d="M1243.428571 1024H73.142857a73.142857 73.142857 0 0 1-73.142857-73.142857V73.142857a73.142857 73.142857 0 0 1 73.142857-73.142857h1170.285714a73.142857 73.142857 0 0 1 73.142858 73.142857v877.714286a73.142857 73.142857 0 0 1-73.142858 73.142857zM87.771429 936.228571h1141.028571V87.771429H87.771429z" fill="#432DCA" p-id="20550"></path><path d="M718.994286 820.662857a39.497143 39.497143 0 0 1-35.84-22.674286L451.291429 318.902857 359.131429 541.988571a38.765714 38.765714 0 0 1-36.571429 24.868572h-146.285714v-80.457143H292.571429l119.222857-280.868571a40.228571 40.228571 0 0 1 35.84-24.868572 38.765714 38.765714 0 0 1 37.302857 22.674286l228.205714 472.502857 127.268572-365.714286a39.497143 39.497143 0 0 1 37.302857-24.137143 40.228571 40.228571 0 0 1 38.034285 27.794286l95.817143 299.154286h133.12v80.457143h-161.645714a40.96 40.96 0 0 1-38.765714-27.794286L877.714286 452.754286l-119.222857 340.845714a39.497143 39.497143 0 0 1-35.84 27.062857z" fill="#432DCA" p-id="20551"></path></svg>