<?xml version="1.0" standalone="no"?><!DOCTYPE svg PUBLIC "-//W3C//DTD SVG 1.1//EN" "http://www.w3.org/Graphics/SVG/1.1/DTD/svg11.dtd"><svg t="1695128474206" class="icon" viewBox="0 0 1024 1024" version="1.1" xmlns="http://www.w3.org/2000/svg" p-id="2822" xmlns:xlink="http://www.w3.org/1999/xlink" width="200" height="200"><path d="M851.7632 280.1152H773.12l4.0448-4.096a97.28 97.28 0 0 0-5.12-141.0048 97.28 97.28 0 0 0-132.4032 3.9936L525.312 252.416 410.9824 139.008a97.28 97.28 0 0 0-132.4032-3.9936 97.28 97.28 0 0 0-5.12 141.0048l4.0448 4.096H186.2656a87.6032 87.6032 0 0 0-87.5008 87.4496v74.0864a87.552 87.552 0 0 0 73.5232 86.2208v264.2944a126.6176 126.6176 0 0 0 126.5152 126.5152h440.32a126.6688 126.6688 0 0 0 126.5152-126.5152V527.872a87.5008 87.5008 0 0 0 73.472-86.2208V367.5648a87.552 87.552 0 0 0-87.3472-87.4496z m-183.296-111.9744a56.32 56.32 0 0 1 95.5392 37.7856 55.6544 55.6544 0 0 1-16.0768 41.3696l-32.3072 32.8192H555.52zM302.6432 247.296a56.32 56.32 0 0 1 2.9696-81.5104 56.32 56.32 0 0 1 76.4928 2.304l112.9472 112.0256H334.9504z m522.24 544.8704a85.6576 85.6576 0 0 1-85.5552 85.5552h-440.32a85.6576 85.6576 0 0 1-85.5552-85.5552v-263.0656h295.2704v317.8496a20.48 20.48 0 0 0 40.96 0v-317.8496h275.0976z m73.472-350.5152a46.5408 46.5408 0 0 1-46.4896 46.4896h-302.08V352.4096a20.48 20.48 0 0 0-40.96 0v135.7312h-322.56a46.5408 46.5408 0 0 1-46.5408-46.4896V367.5648a46.5408 46.5408 0 0 1 46.5408-46.4896h665.6a46.5408 46.5408 0 0 1 46.4896 46.4896z" fill="#432DCA" p-id="2823"></path></svg>