<?xml version="1.0" standalone="no"?><!DOCTYPE svg PUBLIC "-//W3C//DTD SVG 1.1//EN" "http://www.w3.org/Graphics/SVG/1.1/DTD/svg11.dtd"><svg t="1695128491466" class="icon" viewBox="0 0 1024 1024" version="1.1" xmlns="http://www.w3.org/2000/svg" p-id="3836" xmlns:xlink="http://www.w3.org/1999/xlink" width="200" height="200"><path d="M112.896 345.2928l360.4992 182.784a92.16 92.16 0 0 0 84.4288-0.4608l349.8496-182.4768a34.4064 34.4064 0 0 0 0-61.0304L558.08 101.632a92.5184 92.5184 0 0 0-84.4288-0.512l-360.7552 182.784a34.4064 34.4064 0 0 0 0 61.44z m378.88-207.616a51.456 51.456 0 0 1 46.9504 0.256l338.7392 176.6912L538.88 491.52a51.2 51.2 0 0 1-46.9504 0.3072L142.8992 314.624z" fill="#432DCA" p-id="3837"></path><path d="M102.4 533.1456L474.3168 721.92a90.0608 90.0608 0 0 0 82.2272-0.512l360.7552-188.16a20.48 20.48 0 0 0-18.944-36.3008L537.6 684.9024a49.1008 49.1008 0 0 1-44.7488 0L120.9856 496.64a20.48 20.48 0 1 0-18.5856 36.5056z" fill="#432DCA" p-id="3838"></path><path d="M898.3552 690.176L537.6 878.336a49.1008 49.1008 0 0 1-44.7488 0l-371.8656-188.2624a20.48 20.48 0 1 0-18.5856 36.5056l371.8656 188.5184a89.856 89.856 0 0 0 82.2272-0.4608l360.7552-188.16a20.48 20.48 0 0 0-18.944-36.3008z" fill="#432DCA" p-id="3839"></path></svg>