<?xml version="1.0" standalone="no"?><!DOCTYPE svg PUBLIC "-//W3C//DTD SVG 1.1//EN" "http://www.w3.org/Graphics/SVG/1.1/DTD/svg11.dtd"><svg t="1695128494388" class="icon" viewBox="0 0 1024 1024" version="1.1" xmlns="http://www.w3.org/2000/svg" p-id="4040" xmlns:xlink="http://www.w3.org/1999/xlink" width="200" height="200"><path d="M745.1648 95.2832H291.84a150.3232 150.3232 0 0 0-150.3744 150.1184v536.7808A150.3232 150.3232 0 0 0 291.84 932.3008h453.5296a150.272 150.272 0 0 0 150.1184-150.1184V245.4016a150.272 150.272 0 0 0-150.3232-150.1184z m-5.9904 40.96c56.832 0 104.0896 39.2192 113.4592 90.5728 0.3072 1.8944 0.6656 3.84 0.8704 5.7856l0.3072 2.7136c0.3072 3.328 0.512 6.656 0.512 10.24v65.3312a918.0672 918.0672 0 0 1-209.92 67.328c0-0.512-0.3072-1.024-0.4096-1.536-0.6144-2.5088-1.2288-5.12-1.9456-7.3728s-1.0752-3.4816-1.6896-5.12-0.9216-2.7648-1.4848-4.1472a131.3792 131.3792 0 0 0-71.68-74.8032l-0.9216-0.4096c-3.072-1.2288-6.144-2.4064-9.3184-3.4304l-4.1472-1.28c-1.3824-0.4096-2.7648-0.8704-4.1984-1.2288-2.6624-0.6656-5.4272-1.28-8.192-1.792l-3.072-0.5632c-3.0208-0.512-6.144-0.9216-9.2672-1.1776h-1.9456c-3.4816-0.3072-6.9632-0.4608-10.24-0.4608s-7.424 0-11.1104 0.512h-1.3824c-3.4816 0.3072-6.9632 0.8192-10.24 1.3824l-1.6384 0.3072c-3.4304 0.6656-6.7584 1.4336-10.24 2.304l-1.28 0.3584c-3.4304 0.9728-6.8096 2.048-10.24 3.328a129.4336 129.4336 0 0 0-20.1216 9.5744l-0.5632 0.3072c-3.072 1.8432-6.0928 3.7888-9.0112 5.8368l-0.5632 0.4096c-2.9696 2.0992-5.8368 4.352-8.6016 6.656a133.7344 133.7344 0 0 0-22.5792 24.576l-0.3584 0.512c-2.048 2.9184-3.9936 5.9392-5.8368 9.0112l-0.3584 0.6656c-1.792 3.1232-3.5328 6.3488-5.12 9.6256a131.3792 131.3792 0 0 0-7.7824 20.7872l-0.3072 1.1264c-0.9216 3.328-1.6384 6.7584-2.304 10.24v0.768a743.2192 743.2192 0 0 1-203.8272-61.696V245.4016c0-3.4304 0-6.7584 0.512-10.24l0.3072-2.7136c0.256-1.9456 0.5632-3.8912 0.9216-5.7856 9.3184-51.2 56.6272-90.5728 113.408-90.5728zM424.3968 404.0704c0-2.2528 0-4.5568 0.3584-6.7584l0.3072-1.792c0.3072-2.4576 0.6144-5.12 1.1264-7.2704v-0.5632a91.3408 91.3408 0 0 1 89.088-72.0384c3.1232 0 6.1952 0 9.2672 0.4608h0.768a91.3408 91.3408 0 0 1 73.728 54.784l0.5632 1.3824c0.8704 2.0992 1.6384 4.2496 2.3552 6.4512 0.3072 0.9728 0.5632 1.9456 0.8704 2.9184s0.9728 3.4816 1.3312 5.12 0.5632 2.8672 0.8192 4.3008 0.4608 2.816 0.6656 4.2496 0.3584 3.4816 0.4608 5.12 0.3072 4.0448 0.3072 6.0928a91.0848 91.0848 0 0 1-182.1696 0c0.0512-0.6656 0.1536-1.536 0.1536-2.4576z m320.768 487.2704H291.84a109.312 109.312 0 0 1-109.2096-109.1584V366.4896a785.664 785.664 0 0 0 201.9328 58.0096 132.0448 132.0448 0 0 0 262.2464-5.12 950.8864 950.8864 0 0 0 207.5136-63.744v426.496a109.312 109.312 0 0 1-109.1584 109.2096z" fill="#432DCA" p-id="4041"></path></svg>