<?xml version="1.0" standalone="no"?><!DOCTYPE svg PUBLIC "-//W3C//DTD SVG 1.1//EN" "http://www.w3.org/Graphics/SVG/1.1/DTD/svg11.dtd"><svg t="1695128471288" class="icon" viewBox="0 0 1024 1024" version="1.1" xmlns="http://www.w3.org/2000/svg" p-id="2619" xmlns:xlink="http://www.w3.org/1999/xlink" width="200" height="200"><path d="M923.6992 824.576H93.696a20.48 20.48 0 0 0 0 40.96h830.0032a20.48 20.48 0 1 0 0-40.96zM144.9984 750.1824h719.1552a66.56 66.56 0 0 0 17.8688-130.6624 376.32 376.32 0 0 0-299.264-340.992 98.0992 98.0992 0 1 0-148.0704-0.8192 376.4224 376.4224 0 0 0-302.9504 340.736 66.56 66.56 0 0 0 13.2608 131.584z m307.2-536.1152A57.1904 57.1904 0 1 1 512 271.36h-7.0144a57.1392 57.1392 0 0 1-53.0432-57.2928z m-307.2 444.16h6.2464a20.48 20.48 0 0 0 20.48-19.968 333.3632 333.3632 0 0 1 333.2608-326.2976h6.7584a333.2608 333.2608 0 0 1 330.1888 326.1952 20.48 20.48 0 0 0 20.48 19.968h1.7408a25.6 25.6 0 1 1 0 51.2H144.9984a25.6 25.6 0 1 1 0-51.2z" fill="#432DCA" p-id="2620"></path><path d="M304.128 509.5424a20.0192 20.0192 0 0 0 12.3904 4.1984A20.48 20.48 0 0 0 332.8 505.7024a236.3392 236.3392 0 0 1 177.2544-92.9792 20.48 20.48 0 0 0 0.512-40.96 277.6576 277.6576 0 0 0-210.2784 109.056 20.48 20.48 0 0 0 3.84 28.7232z" fill="#432DCA" p-id="2621"></path></svg>