<?xml version="1.0" standalone="no"?><!DOCTYPE svg PUBLIC "-//W3C//DTD SVG 1.1//EN" "http://www.w3.org/Graphics/SVG/1.1/DTD/svg11.dtd"><svg t="1695128477875" class="icon" viewBox="0 0 1024 1024" version="1.1" xmlns="http://www.w3.org/2000/svg" p-id="3024" xmlns:xlink="http://www.w3.org/1999/xlink" width="200" height="200"><path d="M794.8288 226.6624a404.48 404.48 0 0 0-295.936-119.552c-220.672 3.8912-400.4352 186.6752-400.64 407.4496A405.2992 405.2992 0 0 0 167.4752 742.4l-30.1568 96.5632a30.72 30.72 0 0 0 38.144 38.6048l96.256-28.5696a404.48 404.48 0 0 0 234.3936 74.1376h7.168a407.9616 407.9616 0 0 0 281.6-696.32z m-282.2656 655.36A364.544 364.544 0 0 1 291.84 812.6976a30.72 30.72 0 0 0-26.7264-4.5568l-82.7392 24.576 25.9072-83.0464a30.3104 30.3104 0 0 0-4.0448-26.5728 364.7488 364.7488 0 0 1-64.768-208.4864c0-198.6048 161.8944-363.0592 360.3968-366.5408a367.0528 367.0528 0 0 1 373.76 373.76c-4.096 195.328-165.8368 356.8128-361.0624 360.1408z" fill="#432DCA" p-id="3025"></path><path d="M667.5456 466.8928a20.48 20.48 0 0 0 0-40.96h-69.3248l9.6768-70.1952a20.48 20.48 0 0 0-40.5504-5.632l-10.24 75.8272H474.5728l9.728-70.1952a20.48 20.48 0 0 0-40.6016-5.632l-10.24 75.8272h-88.576a20.48 20.48 0 0 0 0 40.96h82.688l-11.3152 81.92H344.8832a20.48 20.48 0 0 0 0 40.96H410.624l-10.6496 76.8a20.48 20.48 0 0 0 17.5104 23.0912 17.3568 17.3568 0 0 0 2.816 0 20.48 20.48 0 0 0 20.48-17.664l11.3664-82.5856h82.3296l-10.6496 76.8a20.48 20.48 0 0 0 17.4592 23.0912 18.0224 18.0224 0 0 0 2.8672 0 20.48 20.48 0 0 0 20.48-17.664l11.4176-82.5856h92.16a20.48 20.48 0 0 0 0-40.96h-86.9376l11.3152-81.92z m-127.6416 81.92H457.6256l11.3152-81.92h82.2784z" fill="#432DCA" p-id="3026"></path></svg>