<?xml version="1.0" standalone="no"?><!DOCTYPE svg PUBLIC "-//W3C//DTD SVG 1.1//EN" "http://www.w3.org/Graphics/SVG/1.1/DTD/svg11.dtd"><svg height="300" node-id="1" sillyvg="true" template-height="300" template-width="500" version="1.1" viewBox="0 0 500 300" width="500" xmlns="http://www.w3.org/2000/svg" xmlns:xlink="http://www.w3.org/1999/xlink"><defs node-id="39"><linearGradient gradientUnits="userSpaceOnUse" id="未命名的渐变_50" node-id="5" spreadMethod="pad" x1="250" x2="250" y1="284.22" y2="191.22"><stop offset="0" stop-color="#fff9ef" stop-opacity="0"></stop><stop offset="0.17" stop-color="#fef8ef" stop-opacity="0.02"></stop><stop offset="0.32" stop-color="#fbf5ee" stop-opacity="0.06"></stop><stop offset="0.46" stop-color="#f5f1ec" stop-opacity="0.14"></stop><stop offset="0.6" stop-color="#edebea" stop-opacity="0.26"></stop><stop offset="0.74" stop-color="#e3e2e7" stop-opacity="0.4"></stop><stop offset="0.87" stop-color="#d6d8e4" stop-opacity="0.58"></stop><stop offset="0.99" stop-color="#c8cde0" stop-opacity="0.79"></stop><stop offset="1" stop-color="#c7cce0" stop-opacity="0.8"></stop></linearGradient><linearGradient gradientUnits="userSpaceOnUse" id="未命名的渐变_35" node-id="15" spreadMethod="pad" x1="554.49994" x2="610.26996" y1="-54.779995" y2="-110.549995"><stop offset="0" stop-color="#fff9ef" stop-opacity="0"></stop><stop offset="0.17" stop-color="#fef8ef" stop-opacity="0.02"></stop><stop offset="0.32" stop-color="#fbf5ee" stop-opacity="0.06"></stop><stop offset="0.46" stop-color="#f5f1ec" stop-opacity="0.14"></stop><stop offset="0.6" stop-color="#edebea" stop-opacity="0.26"></stop><stop offset="0.74" stop-color="#e3e2e7" stop-opacity="0.4"></stop><stop offset="0.87" stop-color="#d6d8e4" stop-opacity="0.58"></stop><stop offset="0.99" stop-color="#c8cde0" stop-opacity="0.79"></stop><stop offset="1" stop-color="#c7cce0" stop-opacity="0.8"></stop></linearGradient><linearGradient gradientUnits="userSpaceOnUse" id="未命名的渐变_35-2" node-id="16" spreadMethod="pad" x1="833.0999" x2="888.86993" y1="-249.93999" y2="-305.71997"><stop offset="0" stop-color="#fff9ef" stop-opacity="0"></stop><stop offset="0.17" stop-color="#fef8ef" stop-opacity="0.02"></stop><stop offset="0.32" stop-color="#fbf5ee" stop-opacity="0.06"></stop><stop offset="0.46" stop-color="#f5f1ec" stop-opacity="0.14"></stop><stop offset="0.6" stop-color="#edebea" stop-opacity="0.26"></stop><stop offset="0.74" stop-color="#e3e2e7" stop-opacity="0.4"></stop><stop offset="0.87" stop-color="#d6d8e4" stop-opacity="0.58"></stop><stop offset="0.99" stop-color="#c8cde0" stop-opacity="0.79"></stop><stop offset="1" stop-color="#c7cce0" stop-opacity="0.8"></stop></linearGradient></defs><path d="M 396.00 237.72 C 396.00 263.40 330.63 284.22 250.00 284.22 C 169.37 284.22 104.00 263.40 104.00 237.72 C 104.00 212.04 169.37 191.22 250.00 191.22 C 330.63 191.22 396.00 212.04 396.00 237.72 Z" fill="url(#未命名的渐变_50)" fill-rule="nonzero" node-id="102" stroke="none" target-height="93" target-width="292" target-x="104" target-y="191.22"></path><g node-id="148"><path d="M 108.85 89.86 L 108.85 89.86 L 110.49 91.84 L 111.70 93.94 L 112.50 96.21 L 112.90 98.58 L 112.90 100.94 L 112.50 103.31 L 111.70 105.58 L 110.49 107.68 L 108.85 109.66 L 57.94 160.57 L 55.97 162.21 L 53.86 163.41 L 51.59 164.22 L 49.22 164.62 L 46.86 164.62 L 44.49 164.22 L 42.23 163.41 L 40.12 162.21 L 38.14 160.57 L 38.14 160.57 L 36.50 158.60 L 35.30 156.49 L 34.50 154.22 L 34.09 151.85 L 34.09 149.49 L 34.50 147.12 L 35.30 144.85 L 36.50 142.75 L 38.14 140.77 L 89.05 89.86 L 91.03 88.22 L 93.14 87.02 L 95.40 86.22 L 97.78 85.81 L 100.13 85.81 L 102.51 86.22 L 104.77 87.02 L 106.88 88.22 L 108.85 89.86 Z" fill="url(#未命名的渐变_35)" fill-rule="nonzero" group-id="1" node-id="106" stroke="none" target-height="78.81137" target-width="78.811386" target-x="34.092743" target-y="85.81056"></path></g><g node-id="149"><path d="M 443.86 148.86 L 443.86 148.86 L 445.49 150.84 L 446.70 152.94 L 447.50 155.21 L 447.91 157.58 L 447.91 159.94 L 447.50 162.31 L 446.70 164.58 L 445.49 166.68 L 443.86 168.66 L 392.94 219.57 L 390.97 221.21 L 388.86 222.41 L 386.60 223.22 L 384.22 223.62 L 381.87 223.62 L 379.49 223.22 L 377.23 222.41 L 375.12 221.21 L 373.14 219.57 L 373.14 219.57 L 371.51 217.60 L 370.30 215.49 L 369.50 213.22 L 369.09 210.85 L 369.09 208.49 L 369.50 206.12 L 370.30 203.86 L 371.51 201.75 L 373.14 199.77 L 424.06 148.86 L 426.03 147.22 L 428.14 146.02 L 430.40 145.22 L 432.78 144.81 L 435.13 144.81 L 437.51 145.22 L 439.77 146.02 L 441.88 147.22 L 443.86 148.86 Z" fill="url(#未命名的渐变_35-2)" fill-rule="nonzero" group-id="2" node-id="111" stroke="none" target-height="78.81143" target-width="78.8114" target-x="369.09418" target-y="144.81061"></path></g><path d="M 297.46 76.79 C 294.00 72.24 287.31 59.85 287.60 57.00 L 288.10 57.00 C 288.10 57.00 288.90 54.71 288.42 54.54 C 287.94 54.37 271.21 52.54 271.21 52.54 L 270.95 55.34 L 271.29 55.34 C 268.07 58.34 258.10 67.67 256.20 72.11 L 253.93 77.42 C 255.59 77.27 257.27 77.62 258.73 78.42 C 260.98 79.75 261.98 85.42 274.10 84.48 C 275.96 84.54 277.79 84.99 279.46 85.82 C 282.88 87.29 285.46 84.13 288.62 85.23 C 291.78 86.33 293.38 86.35 294.85 85.65 C 296.32 84.95 298.01 85.54 299.40 84.65 C 300.79 83.76 301.00 81.42 297.46 76.79 Z" fill="#c7cce0" fill-rule="nonzero" node-id="114" stroke="none" target-height="34.75" target-width="47.070007" target-x="253.93" target-y="52.54"></path><path d="M 296.55 76.14 C 293.07 71.59 286.40 59.14 286.69 56.36 L 287.19 56.36 C 287.19 56.36 287.99 54.07 287.51 53.90 C 287.03 53.73 270.30 51.90 270.30 51.90 L 270.04 54.70 L 270.38 54.70 C 267.16 57.70 257.19 67.03 255.29 71.47 L 253.00 76.90 C 254.66 76.75 256.34 77.10 257.80 77.90 C 260.05 79.23 261.05 84.90 273.17 83.96 C 275.03 84.02 276.86 84.47 278.53 85.30 C 281.95 86.77 284.53 83.61 287.69 84.71 C 290.85 85.81 292.45 85.83 293.92 85.13 C 295.39 84.43 297.08 85.02 298.47 84.13 C 299.86 83.24 300.08 80.77 296.55 76.14 Z" fill="#e2e4ed" fill-rule="nonzero" node-id="116" stroke="none" target-height="34.869995" target-width="47.079987" target-x="253" target-y="51.9"></path><path d="M 323.00 88.26 L 339.50 88.00 L 343.44 89.29 C 343.44 89.29 341.67 93.99 348.44 96.13 C 355.21 98.27 356.88 93.69 356.88 93.69 L 361.00 97.83 L 369.00 109.65 C 369.00 109.65 362.49 116.47 361.91 116.13 C 361.33 115.79 356.05 109.25 356.05 109.25 C 356.05 109.25 345.41 132.69 345.18 132.46 C 344.95 132.23 320.77 120.58 320.84 120.37 C 320.91 120.16 333.11 100.37 333.11 100.37 L 323.27 100.06 Z" fill="#c7cce0" fill-rule="nonzero" node-id="118" stroke="none" target-height="44.690002" target-width="48.23001" target-x="320.77" target-y="88"></path><path d="M 322.59 87.25 L 339.00 87.00 L 343.00 88.25 C 343.00 88.25 341.23 92.95 348.00 95.09 C 354.77 97.23 356.44 92.65 356.44 92.65 L 360.51 96.81 L 368.58 108.62 C 368.58 108.62 362.07 115.44 361.49 115.10 C 360.91 114.76 355.63 108.22 355.63 108.22 C 355.63 108.22 345.00 131.66 344.78 131.43 C 344.56 131.20 320.37 119.55 320.44 119.34 C 320.51 119.13 332.71 99.34 332.71 99.34 L 322.87 99.00 Z" fill="#e2e4ed" fill-rule="nonzero" node-id="120" stroke="none" target-height="44.660004" target-width="48.20999" target-x="320.37" target-y="87"></path><path d="M 425.56 19.21 L 428.00 20.40 C 428.00 20.40 423.73 25.94 426.75 28.16 C 429.77 30.38 432.97 30.79 436.14 24.55 L 438.39 25.55 C 438.39 25.55 430.16 43.95 430.10 46.21 C 426.65 45.68 423.31 44.62 420.19 43.07 C 417.86 41.92 415.62 40.60 413.47 39.14 Z" fill="#c7cce0" fill-opacity="0.8" fill-rule="nonzero" group-id="3" node-id="124" stroke="none" target-height="27" target-width="24.920013" target-x="413.47" target-y="19.21"></path><path d="M 425.13 18.59 L 427.55 19.78 C 427.55 19.78 423.28 25.32 426.30 27.54 C 429.32 29.76 432.52 30.17 435.69 23.93 L 437.94 24.93 C 437.94 24.93 429.71 43.33 429.65 45.59 C 426.20 45.06 422.86 44.00 419.74 42.45 C 417.41 41.29 415.15 39.97 413.00 38.50 Z" fill="#e2e4ed" fill-opacity="0.8" fill-rule="nonzero" group-id="3" node-id="126" stroke="none" target-height="27" target-width="24.940002" target-x="413" target-y="18.59"></path><path d="M 361.93 59.92 C 362.09 59.78 376.93 51.92 377.64 51.92 C 377.64 51.92 381.91 57.43 382.64 58.56 C 383.37 59.69 384.38 60.96 384.38 60.96 L 377.80 66.54 L 374.07 63.86 L 374.63 68.56 L 366.21 71.84 Z" fill="#c7cce0" fill-opacity="0.8" fill-rule="nonzero" group-id="4" node-id="131" stroke="none" target-height="19.919998" target-width="22.450012" target-x="361.93" target-y="51.92"></path><path d="M 361.52 59.94 C 361.68 59.80 376.52 51.94 377.23 51.94 C 377.23 51.94 381.50 57.45 382.23 58.58 C 382.96 59.71 383.97 60.98 383.97 60.98 L 377.39 66.56 L 373.66 63.88 L 374.22 68.58 L 365.80 71.86 Z" fill="#e2e4ed" fill-opacity="0.8" fill-rule="nonzero" group-id="4" node-id="133" stroke="none" target-height="19.920002" target-width="22.450012" target-x="361.52" target-y="51.94"></path><path d="M 191.14 199.58 C 191.14 204.61 187.08 208.69 182.08 208.69 C 177.08 208.69 173.02 204.61 173.02 199.58 C 173.02 194.55 177.08 190.47 182.08 190.47 C 187.08 190.47 191.14 194.55 191.14 199.58 Z" fill="#c7cce0" fill-rule="nonzero" node-id="136" stroke="none" target-height="18.220001" target-width="18.119995" target-x="173.02" target-y="190.47"></path><path d="M 258.78 199.58 C 258.78 204.61 254.72 208.69 249.72 208.69 C 244.72 208.69 240.66 204.61 240.66 199.58 C 240.66 194.55 244.72 190.47 249.72 190.47 C 254.72 190.47 258.78 194.55 258.78 199.58 Z" fill="#c7cce0" fill-rule="nonzero" node-id="138" stroke="none" target-height="18.220001" target-width="18.119995" target-x="240.66" target-y="190.47"></path><path d="M 267.53 183.00 L 178.41 185.00 L 177.77 185.00 C 175.94 184.85 174.25 183.92 173.16 182.44 C 171.91 180.76 171.43 178.64 171.82 176.59 C 172.08 175.45 172.62 174.39 173.40 173.51 L 181.00 164.34 L 258.62 157.88 C 261.44 157.80 263.73 155.56 263.88 152.74 L 271.10 107.57 C 271.10 107.41 271.10 107.25 271.10 107.10 C 271.89 102.10 267.10 99.69 264.10 99.69 L 246.97 101.69 C 246.33 101.29 245.51 101.29 244.87 101.69 L 231.27 101.69 C 230.63 101.29 229.81 101.29 229.17 101.69 L 215.64 101.69 C 215.00 101.29 214.18 101.29 213.54 101.69 L 199.93 101.69 C 199.29 101.29 198.47 101.29 197.83 101.69 L 184.23 101.69 C 183.59 101.29 182.77 101.29 182.13 101.69 L 166.27 101.69 C 165.93 101.69 165.60 101.72 165.27 101.78 L 155.64 69.51 C 155.23 67.59 153.76 66.07 151.86 65.58 L 125.75 60.18 C 124.14 59.76 120.45 58.98 120.03 60.58 C 119.61 62.18 120.18 64.91 124.23 65.98 L 150.38 72.84 L 160.76 107.66 L 176.28 160.66 L 168.76 169.73 C 167.34 171.38 166.36 173.35 165.91 175.48 C 165.24 179.18 166.13 182.99 168.38 186.00 C 171.50 190.25 182.28 190.08 182.28 190.08 L 249.92 190.08 L 268.17 190.38 C 269.81 190.34 271.13 189.02 271.17 187.38 C 271.28 186.31 270.95 185.25 270.27 184.43 C 269.58 183.61 268.60 183.09 267.53 183.00 Z M 248.00 107.61 L 265.00 107.61 L 261.54 129.25 L 248.00 129.25 Z M 248.00 133.25 L 260.90 133.25 L 257.90 151.86 L 247.96 152.69 Z M 232.30 107.61 L 244.00 107.61 L 244.00 129.25 L 232.30 129.25 Z M 232.30 133.25 L 244.00 133.25 L 244.00 153.00 L 232.30 154.00 Z M 216.60 107.61 L 228.30 107.61 L 228.30 129.25 L 216.60 129.25 Z M 216.60 133.25 L 228.30 133.25 L 228.30 154.33 L 216.60 155.33 Z M 200.90 107.61 L 212.60 107.61 L 212.60 129.25 L 200.90 129.25 Z M 200.90 133.25 L 212.60 133.25 L 212.60 155.55 C 212.60 155.55 212.60 155.61 212.60 155.63 L 200.89 156.63 Z M 185.20 107.61 L 196.90 107.61 L 196.90 129.25 L 185.20 129.25 Z M 185.20 133.25 L 196.90 133.25 L 196.90 156.94 L 185.20 157.94 Z M 167.00 107.61 L 181.15 107.61 L 181.15 129.25 L 173.34 129.25 Z M 174.51 133.25 L 181.15 133.25 L 181.15 155.91 Z" fill="#c7cce0" fill-rule="nonzero" node-id="140" stroke="none" target-height="131.40001" target-width="152.28001" target-x="119.61" target-y="58.98"></path><path d="M 189.64 198.08 C 189.64 203.11 185.58 207.19 180.58 207.19 C 175.58 207.19 171.52 203.11 171.52 198.08 C 171.52 193.05 175.58 188.97 180.58 188.97 C 185.58 188.97 189.64 193.05 189.64 198.08 Z" fill="#e2e4ed" fill-rule="nonzero" node-id="142" stroke="none" target-height="18.220001" target-width="18.119995" target-x="171.52" target-y="188.97"></path><path d="M 257.28 198.08 C 257.28 203.11 253.22 207.19 248.22 207.19 C 243.22 207.19 239.16 203.11 239.16 198.08 C 239.16 193.05 243.22 188.97 248.22 188.97 C 253.22 188.97 257.28 193.05 257.28 198.08 Z" fill="#e2e4ed" fill-rule="nonzero" node-id="144" stroke="none" target-height="18.220001" target-width="18.119995" target-x="239.16" target-y="188.97"></path><path d="M 267.00 183.00 L 176.41 183.00 L 175.77 183.00 C 173.94 182.85 172.25 181.92 171.16 180.44 C 169.91 178.76 169.43 176.64 169.82 174.59 C 170.08 173.45 170.62 172.39 171.40 171.51 L 179.00 162.34 L 256.62 155.88 C 259.44 155.80 261.73 153.56 261.88 150.74 L 269.10 105.57 C 269.11 105.41 269.11 105.26 269.10 105.10 C 269.10 102.10 266.68 99.68 263.68 99.67 L 245.00 99.67 C 244.36 99.27 243.54 99.27 242.90 99.67 L 229.30 99.67 C 228.66 99.27 227.84 99.27 227.20 99.67 L 213.64 99.67 C 213.00 99.27 212.18 99.27 211.54 99.67 L 197.93 99.67 C 197.29 99.27 196.47 99.27 195.83 99.67 L 182.23 99.67 C 181.59 99.27 180.77 99.27 180.13 99.67 L 164.27 99.67 C 163.93 99.67 163.60 99.70 163.27 99.76 L 153.64 67.49 C 153.33 66.50 152.53 65.75 151.53 65.49 L 123.76 58.10 C 122.71 57.78 121.57 58.06 120.79 58.84 C 120.00 59.61 119.71 60.74 120.01 61.80 C 120.31 62.86 121.17 63.66 122.24 63.90 L 148.39 70.76 L 158.77 105.58 L 174.29 158.58 L 166.77 167.65 C 165.35 169.30 164.37 171.27 163.92 173.40 C 163.20 177.12 164.09 180.98 166.38 184.00 C 168.50 186.85 171.75 188.64 175.29 188.92 C 175.66 188.92 176.04 188.92 176.42 188.92 L 267.00 188.92 C 268.66 188.92 270.00 187.58 270.00 185.92 C 270.00 184.26 268.66 182.92 267.00 182.92 Z M 246.00 105.64 L 263.00 105.64 L 259.54 127.28 L 246.00 127.28 Z M 246.00 131.28 L 258.90 131.28 L 255.90 149.89 L 245.96 150.72 Z M 230.30 105.64 L 242.00 105.64 L 242.00 127.28 L 230.30 127.28 Z M 230.30 131.28 L 242.00 131.28 L 242.00 151.00 L 230.30 152.00 Z M 214.60 105.64 L 226.30 105.64 L 226.30 127.28 L 214.60 127.28 Z M 214.60 131.28 L 226.30 131.28 L 226.30 152.36 L 214.60 153.36 Z M 198.90 105.64 L 210.60 105.64 L 210.60 127.28 L 198.90 127.28 Z M 198.90 131.28 L 210.60 131.28 L 210.60 153.58 C 210.60 153.58 210.60 153.64 210.60 153.66 L 198.89 154.66 Z M 183.20 105.64 L 194.90 105.64 L 194.90 127.28 L 183.20 127.28 Z M 183.20 131.28 L 194.90 131.28 L 194.90 154.97 L 183.20 155.97 Z M 165.00 105.61 L 179.15 105.61 L 179.15 127.25 L 171.34 127.25 Z M 172.51 131.25 L 179.15 131.25 L 179.15 153.91 Z" fill="#e2e4ed" fill-rule="nonzero" node-id="146" stroke="none" target-height="131.1377" target-width="150.29434" target-x="119.70565" target-y="57.782307"></path></svg>