<?xml version="1.0" standalone="no"?><!DOCTYPE svg PUBLIC "-//W3C//DTD SVG 1.1//EN" "http://www.w3.org/Graphics/SVG/1.1/DTD/svg11.dtd"><svg t="1695128467159" class="icon" viewBox="0 0 1024 1024" version="1.1" xmlns="http://www.w3.org/2000/svg" p-id="2416" xmlns:xlink="http://www.w3.org/1999/xlink" width="200" height="200"><path d="M918.0672 782.7968l-69.9904-419.84a122.88 122.88 0 0 0-121.3952-102.8096h-25.6a180.5824 180.5824 0 0 0-360.5504 0h-31.0272A122.88 122.88 0 0 0 188.416 361.3184l-75.4176 419.84a123.136 123.136 0 0 0 121.1392 144.7936H796.672a122.88 122.88 0 0 0 121.3952-143.36zM520.8064 130.8672a139.8272 139.8272 0 0 1 139.2128 129.1264H381.5936a139.8272 139.8272 0 0 1 139.2128-129.1264z m338.5344 725.248a81.92 81.92 0 0 1-62.6688 29.0304H234.1376A81.92 81.92 0 0 1 153.6 788.48l75.1104-419.84a81.92 81.92 0 0 1 80.7936-67.584h30.72v87.04a20.48 20.48 0 0 0 40.96 0v-87.04H660.48v87.04a20.48 20.48 0 1 0 40.96 0v-87.04h25.2928a81.92 81.92 0 0 1 80.9984 68.608l69.9904 419.84a81.92 81.92 0 0 1-18.3808 66.6112z" fill="#432DCA" p-id="2417"></path><path d="M673.28 728.832H342.3232a20.48 20.48 0 1 0 0 40.96h330.9568a20.48 20.48 0 0 0 0-40.96z" fill="#432DCA" p-id="2418"></path></svg>