<?xml version="1.0" standalone="no"?><!DOCTYPE svg PUBLIC "-//W3C//DTD SVG 1.1//EN" "http://www.w3.org/Graphics/SVG/1.1/DTD/svg11.dtd"><svg t="1695277121892" class="icon" viewBox="0 0 1024 1024" version="1.1" xmlns="http://www.w3.org/2000/svg" p-id="1544" xmlns:xlink="http://www.w3.org/1999/xlink" width="28" height="28"><path d="M282.453333 676.693333m-181.333333 0a181.333333 181.333333 0 1 0 362.666667 0 181.333333 181.333333 0 1 0-362.666667 0Z" fill="#d81e06" p-id="1545"></path><path d="M570.453333 111.36m-42.666666 0a42.666667 42.666667 0 1 0 85.333333 0 42.666667 42.666667 0 1 0-85.333333 0Z" fill="#d81e06" p-id="1546"></path><path d="M388.053333 866.346667A208 208 0 0 1 241.066667 512l106.666666-106.666667 45.226667 45.226667-106.666667 106.666667A144 144 0 1 0 490.666667 760.32l107.733333-106.666667 45.226667 45.226667-107.733334 106.666667a207.146667 207.146667 0 0 1-147.84 60.8zM723.413333 617.173333l-45.226666-45.226666 100.906666-100.906667A144 144 0 1 0 576 267.52l-100.906667 100.906667-45.226666-45.44 100.906666-100.906667A208 208 0 0 1 824.32 516.266667z" fill="#d81e06" p-id="1547"></path><path d="M442.794667 558.506667l134.570666-134.549334 45.248 45.269334-134.549333 134.549333z" fill="#d81e06" p-id="1548"></path></svg>