<?xml version="1.0" standalone="no"?><!DOCTYPE svg PUBLIC "-//W3C//DTD SVG 1.1//EN" "http://www.w3.org/Graphics/SVG/1.1/DTD/svg11.dtd"><svg t="1695128460753" class="icon" viewBox="0 0 1024 1024" version="1.1" xmlns="http://www.w3.org/2000/svg" p-id="2010" xmlns:xlink="http://www.w3.org/1999/xlink" width="200" height="200"><path d="M508.8256 137.472a403.456 403.456 0 1 0 403.4048 403.456 403.9168 403.9168 0 0 0-403.4048-403.456z m0 765.952a362.496 362.496 0 1 1 362.4448-362.496 362.9056 362.9056 0 0 1-362.4448 362.496z" fill="#432DCA" p-id="2011"></path><path d="M526.4384 288.9728a20.48 20.48 0 0 0-40.96 0v233.5744h-5.9392a20.48 20.48 0 0 0 0 40.96h5.9392v11.9296a20.48 20.48 0 0 0 40.96 0v-11.9296h241.8688a20.48 20.48 0 0 0 0-40.96h-241.8688zM128.6656 266.24l141.0048-131.9424a20.48 20.48 0 1 0-28.0064-29.9008L100.7104 236.3392A20.48 20.48 0 1 0 128.6656 266.24zM920.0128 236.3392l-141.0048-131.9424a20.48 20.48 0 0 0-27.9552 29.9008L892.0064 266.24a20.48 20.48 0 0 0 28.0064-29.9008z" fill="#432DCA" p-id="2012"></path></svg>