<?xml version="1.0" standalone="no"?><!DOCTYPE svg PUBLIC "-//W3C//DTD SVG 1.1//EN" "http://www.w3.org/Graphics/SVG/1.1/DTD/svg11.dtd"><svg t="1695128514386" class="icon" viewBox="0 0 1024 1024" version="1.1" xmlns="http://www.w3.org/2000/svg" p-id="5459" xmlns:xlink="http://www.w3.org/1999/xlink" width="200" height="200"><path d="M880.64 457.1648l-282.6752-217.8048a133.5296 133.5296 0 0 0-164.5056 1.024L158.72 457.3184a133.12 133.12 0 0 0-50.8416 104.9088v232.3968a133.8368 133.8368 0 0 0 133.7344 133.6832h557.4656a133.8368 133.8368 0 0 0 133.6832-133.6832V563.2A134.5536 134.5536 0 0 0 880.64 457.1648z m-294.144 430.08H427.3664v-175.872a25.9072 25.9072 0 0 1 25.6-25.856h107.52a25.9072 25.9072 0 0 1 25.9072 25.856z m305.2544-92.7232a92.8256 92.8256 0 0 1-92.7232 92.7232h-171.52v-175.872a66.9184 66.9184 0 0 0-66.8672-66.56h-107.52a66.9184 66.9184 0 0 0-66.56 66.56v175.9744H241.7152a92.8256 92.8256 0 0 1-92.7744-92.7232v-232.3968A92.16 92.16 0 0 1 184.32 489.472l274.5344-216.9344a92.6208 92.6208 0 0 1 114.1248-0.7168l282.6752 217.8048a93.2352 93.2352 0 0 1 36.1472 73.5744z" fill="#432DCA" p-id="5460"></path><path d="M937.216 369.5616l-337.5104-240.896c-40.96-31.3344-120.064-40.0896-165.5808-4.864L87.7056 387.584A20.48 20.48 0 1 0 112.64 420.1472l346.4704-263.8848c26.624-20.48 86.1696-18.0224 115.8144 5.12l0.6656 0.512 337.92 241.1008a20.48 20.48 0 1 0 23.808-33.3312z" fill="#432DCA" p-id="5461"></path></svg>