<?xml version="1.0" standalone="no"?><!DOCTYPE svg PUBLIC "-//W3C//DTD SVG 1.1//EN" "http://www.w3.org/Graphics/SVG/1.1/DTD/svg11.dtd"><svg height="300" node-id="1" sillyvg="true" template-height="300" template-width="500" version="1.1" viewBox="0 0 500 300" width="500" xmlns="http://www.w3.org/2000/svg" xmlns:xlink="http://www.w3.org/1999/xlink"><defs node-id="115"><linearGradient gradientUnits="userSpaceOnUse" id="未命名的渐变_50" node-id="5" spreadMethod="pad" x1="250" x2="250" y1="284.22" y2="191.22"><stop offset="0" stop-color="#fff9ef" stop-opacity="0"></stop><stop offset="0.17" stop-color="#fef8ef" stop-opacity="0.02"></stop><stop offset="0.32" stop-color="#fbf5ee" stop-opacity="0.06"></stop><stop offset="0.46" stop-color="#f5f1ec" stop-opacity="0.14"></stop><stop offset="0.6" stop-color="#edebea" stop-opacity="0.26"></stop><stop offset="0.74" stop-color="#e3e2e7" stop-opacity="0.4"></stop><stop offset="0.87" stop-color="#d6d8e4" stop-opacity="0.58"></stop><stop offset="0.99" stop-color="#c8cde0" stop-opacity="0.79"></stop><stop offset="1" stop-color="#c7cce0" stop-opacity="0.8"></stop></linearGradient><linearGradient gradientUnits="userSpaceOnUse" id="未命名的渐变_35" node-id="15" spreadMethod="pad" x1="877.26996" x2="933.0399" y1="-627.5399" y2="-683.31995"><stop offset="0" stop-color="#fff9ef" stop-opacity="0"></stop><stop offset="0.17" stop-color="#fef8ef" stop-opacity="0.02"></stop><stop offset="0.32" stop-color="#fbf5ee" stop-opacity="0.06"></stop><stop offset="0.46" stop-color="#f5f1ec" stop-opacity="0.14"></stop><stop offset="0.6" stop-color="#edebea" stop-opacity="0.26"></stop><stop offset="0.74" stop-color="#e3e2e7" stop-opacity="0.4"></stop><stop offset="0.87" stop-color="#d6d8e4" stop-opacity="0.58"></stop><stop offset="0.99" stop-color="#c8cde0" stop-opacity="0.79"></stop><stop offset="1" stop-color="#c7cce0" stop-opacity="0.8"></stop></linearGradient><linearGradient gradientUnits="userSpaceOnUse" id="未命名的渐变_35-2" node-id="16" spreadMethod="pad" x1="1155.8699" x2="1211.6399" y1="-822.69995" y2="-878.4799"><stop offset="0" stop-color="#fff9ef" stop-opacity="0"></stop><stop offset="0.17" stop-color="#fef8ef" stop-opacity="0.02"></stop><stop offset="0.32" stop-color="#fbf5ee" stop-opacity="0.06"></stop><stop offset="0.46" stop-color="#f5f1ec" stop-opacity="0.14"></stop><stop offset="0.6" stop-color="#edebea" stop-opacity="0.26"></stop><stop offset="0.74" stop-color="#e3e2e7" stop-opacity="0.4"></stop><stop offset="0.87" stop-color="#d6d8e4" stop-opacity="0.58"></stop><stop offset="0.99" stop-color="#c8cde0" stop-opacity="0.79"></stop><stop offset="1" stop-color="#c7cce0" stop-opacity="0.8"></stop></linearGradient><linearGradient gradientUnits="userSpaceOnUse" id="未命名的渐变_35-3" node-id="17" spreadMethod="pad" x1="1077.3799" x2="1133.1499" y1="-926.64996" y2="-982.4199"><stop offset="0" stop-color="#fff9ef" stop-opacity="0"></stop><stop offset="0.17" stop-color="#fef8ef" stop-opacity="0.02"></stop><stop offset="0.32" stop-color="#fbf5ee" stop-opacity="0.06"></stop><stop offset="0.46" stop-color="#f5f1ec" stop-opacity="0.14"></stop><stop offset="0.6" stop-color="#edebea" stop-opacity="0.26"></stop><stop offset="0.74" stop-color="#e3e2e7" stop-opacity="0.4"></stop><stop offset="0.87" stop-color="#d6d8e4" stop-opacity="0.58"></stop><stop offset="0.99" stop-color="#c8cde0" stop-opacity="0.79"></stop><stop offset="1" stop-color="#c7cce0" stop-opacity="0.8"></stop></linearGradient><linearGradient gradientUnits="userSpaceOnUse" id="未命名的渐变_73" node-id="18" spreadMethod="pad" x1="205.79" x2="294.4" y1="65.14" y2="218.61"><stop offset="0" stop-color="#ffffff"></stop><stop offset="0.3" stop-color="#f5f6f9"></stop><stop offset="1" stop-color="#e2e4ed"></stop></linearGradient><linearGradient gradientUnits="userSpaceOnUse" id="未命名的渐变_77" node-id="22" spreadMethod="pad" x1="250" x2="250" y1="76.27" y2="207.36"><stop offset="0" stop-color="#ffffff"></stop><stop offset="0.0000000000000002220446" stop-color="#e2e4ed" stop-opacity="0.5"></stop><stop offset="0.02" stop-color="#e0e2ec" stop-opacity="0.54"></stop><stop offset="0.12" stop-color="#d8dbe8" stop-opacity="0.68"></stop><stop offset="0.22" stop-color="#d2d6e5" stop-opacity="0.8"></stop><stop offset="0.34" stop-color="#cdd1e3" stop-opacity="0.89"></stop><stop offset="0.48" stop-color="#cacee1" stop-opacity="0.95"></stop><stop offset="0.65" stop-color="#c8cde0" stop-opacity="0.99"></stop><stop offset="1" stop-color="#c7cce0"></stop></linearGradient><linearGradient gradientUnits="userSpaceOnUse" id="未命名的渐变_66" node-id="44" spreadMethod="pad" x1="213.5" x2="286.5" y1="189.5" y2="189.5"><stop offset="0" stop-color="#ffffff"></stop><stop offset="0.0000000000000002220446" stop-color="#ffffff" stop-opacity="0"></stop><stop offset="0.09" stop-color="#ffffff" stop-opacity="0.04"></stop><stop offset="0.23" stop-color="#ffffff" stop-opacity="0.14"></stop><stop offset="0.41" stop-color="#ffffff" stop-opacity="0.31"></stop><stop offset="0.63" stop-color="#ffffff" stop-opacity="0.55"></stop><stop offset="0.88" stop-color="#ffffff" stop-opacity="0.84"></stop><stop offset="1" stop-color="#ffffff"></stop></linearGradient><linearGradient gradientUnits="userSpaceOnUse" id="未命名的渐变_71" node-id="68" spreadMethod="pad" x1="218" x2="282" y1="102" y2="102"><stop offset="0" stop-color="#ffffff"></stop><stop offset="0.0000000000000002220446" stop-color="#ffffff" stop-opacity="0"></stop><stop offset="0.04" stop-color="#ffffff" stop-opacity="0.05"></stop><stop offset="0.32" stop-color="#ffffff" stop-opacity="0.38"></stop><stop offset="0.56" stop-color="#ffffff" stop-opacity="0.65"></stop><stop offset="0.76" stop-color="#ffffff" stop-opacity="0.84"></stop><stop offset="0.91" stop-color="#ffffff" stop-opacity="0.96"></stop><stop offset="1" stop-color="#ffffff"></stop></linearGradient><linearGradient gradientUnits="userSpaceOnUse" id="未命名的渐变_74" node-id="92" spreadMethod="pad" x1="196" x2="196" y1="131.5" y2="127.5"><stop offset="0" stop-color="#ffffff"></stop><stop offset="0.0000000000000002220446" stop-color="#fff3e0"></stop><stop offset="0.31" stop-color="#ffecce"></stop><stop offset="0.63" stop-color="#ffe8c3"></stop><stop offset="1" stop-color="#ffe7c0"></stop></linearGradient></defs><path d="M 396.00 237.72 C 396.00 263.40 330.63 284.22 250.00 284.22 C 169.37 284.22 104.00 263.40 104.00 237.72 C 104.00 212.04 169.37 191.22 250.00 191.22 C 330.63 191.22 396.00 212.04 396.00 237.72 Z" fill="url(#未命名的渐变_50)" fill-rule="nonzero" node-id="274" stroke="none" target-height="93" target-width="292" target-x="104" target-y="191.22"></path><g node-id="317"><path d="M 108.85 89.86 L 108.85 89.86 L 110.49 91.84 L 111.70 93.94 L 112.50 96.21 L 112.90 98.58 L 112.90 100.94 L 112.50 103.31 L 111.70 105.58 L 110.49 107.68 L 108.85 109.66 L 57.94 160.57 L 55.97 162.21 L 53.86 163.41 L 51.59 164.22 L 49.22 164.62 L 46.86 164.62 L 44.49 164.22 L 42.23 163.41 L 40.12 162.21 L 38.14 160.57 L 38.14 160.57 L 36.50 158.60 L 35.30 156.49 L 34.50 154.22 L 34.09 151.85 L 34.09 149.49 L 34.50 147.12 L 35.30 144.85 L 36.50 142.75 L 38.14 140.77 L 89.05 89.86 L 91.03 88.22 L 93.14 87.02 L 95.40 86.22 L 97.78 85.81 L 100.13 85.81 L 102.51 86.22 L 104.77 87.02 L 106.88 88.22 L 108.85 89.86 Z" fill="url(#未命名的渐变_35)" fill-rule="nonzero" group-id="1" node-id="278" stroke="none" target-height="78.81137" target-width="78.811386" target-x="34.092743" target-y="85.81056"></path></g><g node-id="318"><path d="M 443.86 148.86 L 443.86 148.86 L 445.49 150.84 L 446.70 152.94 L 447.50 155.21 L 447.91 157.58 L 447.91 159.94 L 447.50 162.31 L 446.70 164.58 L 445.49 166.68 L 443.86 168.66 L 392.94 219.57 L 390.97 221.21 L 388.86 222.41 L 386.60 223.22 L 384.22 223.62 L 381.87 223.62 L 379.49 223.22 L 377.23 222.41 L 375.12 221.21 L 373.14 219.57 L 373.14 219.57 L 371.51 217.60 L 370.30 215.49 L 369.50 213.22 L 369.09 210.85 L 369.09 208.49 L 369.50 206.12 L 370.30 203.86 L 371.51 201.75 L 373.14 199.77 L 424.06 148.86 L 426.03 147.22 L 428.14 146.02 L 430.40 145.22 L 432.78 144.81 L 435.13 144.81 L 437.51 145.22 L 439.77 146.02 L 441.88 147.22 L 443.86 148.86 Z" fill="url(#未命名的渐变_35-2)" fill-rule="nonzero" group-id="2" node-id="283" stroke="none" target-height="78.81143" target-width="78.8114" target-x="369.09418" target-y="144.81061"></path></g><g node-id="319"><path d="M 461.86 19.86 L 461.86 19.86 L 463.50 21.84 L 464.70 23.94 L 465.50 26.21 L 465.91 28.58 L 465.91 30.94 L 465.50 33.31 L 464.70 35.58 L 463.50 37.69 L 461.86 39.66 L 410.95 90.57 L 408.97 92.21 L 406.87 93.42 L 404.60 94.22 L 402.23 94.62 L 399.87 94.62 L 397.50 94.22 L 395.23 93.42 L 393.12 92.21 L 391.15 90.57 L 391.15 90.57 L 389.51 88.60 L 388.31 86.49 L 387.50 84.22 L 387.10 81.85 L 387.10 79.49 L 387.50 77.12 L 388.31 74.86 L 389.51 72.75 L 391.15 70.77 L 442.06 19.86 L 444.04 18.22 L 446.14 17.02 L 448.41 16.22 L 450.78 15.81 L 453.14 15.81 L 455.51 16.22 L 457.78 17.02 L 459.88 18.22 L 461.86 19.86 Z" fill="url(#未命名的渐变_35-3)" fill-rule="nonzero" group-id="3" node-id="288" stroke="none" target-height="78.81137" target-width="78.8114" target-x="387.09888" target-y="15.811768"></path></g><path d="M 261.23 136.33 C 276.00 123.72 300.00 100.65 300.00 84.20 C 299.99 77.70 298.31 71.30 295.11 65.64 L 204.87 65.64 C 201.68 71.31 200.00 77.70 200.00 84.20 C 200.00 100.66 224.00 123.73 238.77 136.33 C 240.41 137.63 241.36 139.60 241.36 141.69 C 241.36 143.77 240.41 145.74 238.77 147.04 C 224.00 159.64 200.00 182.71 200.00 199.17 C 200.01 205.29 201.50 211.31 204.35 216.72 C 208.41 228.55 286.71 228.33 295.03 217.72 L 295.11 217.72 C 298.30 212.06 299.99 205.67 300.00 199.17 C 300.00 182.71 276.00 159.64 261.23 147.04 C 259.59 145.74 258.64 143.77 258.64 141.69 C 258.64 139.60 259.59 137.63 261.23 136.33 Z" fill="url(#未命名的渐变_73)" fill-rule="nonzero" node-id="291" stroke="none" target-height="162.91" target-width="100" target-x="200" target-y="65.64"></path><path d="M 226.00 206.58 C 225.43 206.69 224.87 206.84 224.33 207.03 C 213.85 210.69 204.19 205.71 204.19 215.74 C 204.19 229.24 295.78 228.57 295.78 215.84 C 295.78 205.63 285.98 210.90 275.37 206.84 C 269.04 204.42 256.77 202.91 252.04 202.40 C 250.79 202.27 249.52 202.31 248.28 202.54 Z" fill="#c7cce0" fill-rule="nonzero" node-id="293" stroke="none" target-height="26.973679" target-width="91.59" target-x="204.19" target-y="202.26633"></path><path d="M 252.00 148.49 C 252.13 144.94 255.72 141.04 258.66 138.55 C 271.42 127.76 293.66 107.34 293.66 92.55 C 293.65 86.86 292.18 81.27 289.38 76.31 L 210.38 76.31 C 207.60 81.26 206.13 86.84 206.12 92.52 C 206.12 107.35 228.41 128.31 241.17 139.10 C 244.08 141.56 247.04 144.89 246.57 148.40 L 249.81 207.40 Z" fill="url(#未命名的渐变_77)" fill-rule="nonzero" node-id="295" stroke="none" target-height="131.09" target-width="87.54001" target-x="206.12" target-y="76.31"></path><path d="M 289.50 76.50 C 289.50 78.43 275.70 81.00 252.50 81.00 C 229.30 81.00 210.50 78.43 210.50 76.50 C 210.50 74.57 229.30 73.00 252.50 73.00 C 275.70 73.00 289.50 74.57 289.50 76.50 Z" fill="#c7cce0" fill-rule="nonzero" node-id="297" stroke="none" target-height="8" target-width="79" target-x="210.5" target-y="73"></path><path d="M 286.50 189.50 C 286.50 209.66 270.16 226.00 250.00 226.00 C 229.84 226.00 213.50 209.66 213.50 189.50 C 213.50 169.34 229.84 153.00 250.00 153.00 C 270.16 153.00 286.50 169.34 286.50 189.50 Z" fill="url(#未命名的渐变_66)" fill-opacity="0.4" fill-rule="nonzero" group-id="4" node-id="301" stroke="none" target-height="73" target-width="73" target-x="213.5" target-y="153"></path><path d="M 282.00 102.00 C 282.00 119.67 267.67 134.00 250.00 134.00 C 232.33 134.00 218.00 119.67 218.00 102.00 C 218.00 84.33 232.33 70.00 250.00 70.00 C 267.67 70.00 282.00 84.33 282.00 102.00 Z" fill="url(#未命名的渐变_71)" fill-opacity="0.4" fill-rule="nonzero" group-id="5" node-id="306" stroke="none" target-height="64" target-width="64" target-x="218" target-y="70"></path><path d="M 157.00 109.50 C 157.00 108.96 156.00 108.50 154.53 108.24 C 153.88 108.13 153.37 107.62 153.26 106.97 C 153.01 105.49 152.54 104.50 152.00 104.50 C 151.46 104.50 151.00 105.50 150.74 106.97 C 150.63 107.62 150.12 108.13 149.47 108.24 C 147.99 108.49 147.00 108.96 147.00 109.50 C 147.00 110.04 148.00 110.50 149.47 110.76 C 150.12 110.87 150.63 111.38 150.74 112.03 C 150.99 113.51 151.46 114.50 152.00 114.50 C 152.54 114.50 153.00 113.50 153.26 112.03 C 153.37 111.38 153.88 110.87 154.53 110.76 C 156.00 110.50 157.00 110.00 157.00 109.50 Z" fill="#e2e4ed" fill-rule="nonzero" node-id="309" stroke="none" target-height="10" target-width="10" target-x="147" target-y="104.5"></path><path d="M 198.00 129.50 C 198.00 129.29 197.60 129.10 197.00 129.00 C 196.74 128.96 196.53 128.75 196.49 128.49 C 196.39 127.90 196.20 127.49 195.99 127.49 C 195.78 127.49 195.59 127.89 195.49 128.49 C 195.45 128.75 195.24 128.96 194.98 129.00 C 194.39 129.10 193.98 129.29 193.98 129.50 C 193.98 129.71 194.38 129.90 194.98 130.00 C 195.24 130.04 195.45 130.25 195.49 130.51 C 195.59 131.10 195.78 131.51 195.99 131.51 C 196.20 131.51 196.39 131.11 196.49 130.51 C 196.53 130.25 196.74 130.04 197.00 130.00 C 197.60 129.90 198.00 129.71 198.00 129.50 Z" fill="url(#未命名的渐变_74)" fill-rule="nonzero" node-id="311" stroke="none" target-height="4.0199966" target-width="4.0200043" target-x="193.98" target-y="127.49"></path><path d="M 192.79 65.58 C 192.79 64.43 190.66 63.43 187.49 62.89 C 186.11 62.65 185.02 61.56 184.78 60.18 C 184.24 57.01 183.24 54.88 182.09 54.88 C 180.94 54.88 179.94 57.01 179.40 60.18 C 179.16 61.56 178.07 62.65 176.69 62.89 C 173.52 63.43 171.39 64.43 171.39 65.58 C 171.39 66.73 173.52 67.73 176.69 68.27 C 178.08 68.52 179.16 69.61 179.39 71.00 C 179.93 74.17 180.93 76.30 182.08 76.30 C 183.23 76.30 184.23 74.17 184.77 71.00 C 185.01 69.62 186.10 68.53 187.48 68.29 C 190.66 67.73 192.79 66.73 192.79 65.58 Z" fill="#e2e4ed" fill-rule="nonzero" node-id="313" stroke="none" target-height="21.420002" target-width="21.399994" target-x="171.39" target-y="54.88"></path><path d="M 301.00 152.00 C 301.00 151.62 300.30 151.30 299.27 151.12 C 298.81 151.04 298.46 150.69 298.38 150.23 C 298.20 149.23 297.88 148.50 297.50 148.50 C 297.12 148.50 296.80 149.20 296.62 150.23 C 296.54 150.69 296.19 151.04 295.73 151.12 C 294.73 151.30 294.00 151.62 294.00 152.00 C 294.00 152.38 294.70 152.70 295.73 152.88 C 296.19 152.96 296.54 153.31 296.62 153.77 C 296.80 154.77 297.12 155.50 297.50 155.50 C 297.88 155.50 298.20 154.80 298.38 153.77 C 298.46 153.31 298.81 152.96 299.27 152.88 C 300.30 152.70 301.00 152.38 301.00 152.00 Z" fill="#e2e4ed" fill-rule="nonzero" node-id="315" stroke="none" target-height="7" target-width="7" target-x="294" target-y="148.5"></path></svg>