<?xml version="1.0" standalone="no"?><!DOCTYPE svg PUBLIC "-//W3C//DTD SVG 1.1//EN" "http://www.w3.org/Graphics/SVG/1.1/DTD/svg11.dtd"><svg height="300" node-id="1" sillyvg="true" template-height="300" template-width="500" version="1.1" viewBox="0 0 500 300" width="500" xmlns="http://www.w3.org/2000/svg" xmlns:xlink="http://www.w3.org/1999/xlink"><defs node-id="31"><linearGradient gradientUnits="userSpaceOnUse" id="未命名的渐变_50" node-id="5" spreadMethod="pad" x1="250" x2="250" y1="284.22" y2="191.22"><stop offset="0" stop-color="#fff9ef" stop-opacity="0"></stop><stop offset="0.17" stop-color="#fef8ef" stop-opacity="0.02"></stop><stop offset="0.32" stop-color="#fbf5ee" stop-opacity="0.06"></stop><stop offset="0.46" stop-color="#f5f1ec" stop-opacity="0.14"></stop><stop offset="0.6" stop-color="#edebea" stop-opacity="0.26"></stop><stop offset="0.74" stop-color="#e3e2e7" stop-opacity="0.4"></stop><stop offset="0.87" stop-color="#d6d8e4" stop-opacity="0.58"></stop><stop offset="0.99" stop-color="#c8cde0" stop-opacity="0.79"></stop><stop offset="1" stop-color="#c7cce0" stop-opacity="0.8"></stop></linearGradient><linearGradient gradientUnits="userSpaceOnUse" id="未命名的渐变_35" node-id="15" spreadMethod="pad" x1="-250.94998" x2="-195.16998" y1="-599.2899" y2="-655.05994"><stop offset="0" stop-color="#fff9ef" stop-opacity="0"></stop><stop offset="0.17" stop-color="#fef8ef" stop-opacity="0.02"></stop><stop offset="0.32" stop-color="#fbf5ee" stop-opacity="0.06"></stop><stop offset="0.46" stop-color="#f5f1ec" stop-opacity="0.14"></stop><stop offset="0.6" stop-color="#edebea" stop-opacity="0.26"></stop><stop offset="0.74" stop-color="#e3e2e7" stop-opacity="0.4"></stop><stop offset="0.87" stop-color="#d6d8e4" stop-opacity="0.58"></stop><stop offset="0.99" stop-color="#c8cde0" stop-opacity="0.79"></stop><stop offset="1" stop-color="#c7cce0" stop-opacity="0.8"></stop></linearGradient><linearGradient gradientUnits="userSpaceOnUse" id="未命名的渐变_35-2" node-id="16" spreadMethod="pad" x1="27.649998" x2="83.42999" y1="-794.44995" y2="-850.2199"><stop offset="0" stop-color="#fff9ef" stop-opacity="0"></stop><stop offset="0.17" stop-color="#fef8ef" stop-opacity="0.02"></stop><stop offset="0.32" stop-color="#fbf5ee" stop-opacity="0.06"></stop><stop offset="0.46" stop-color="#f5f1ec" stop-opacity="0.14"></stop><stop offset="0.6" stop-color="#edebea" stop-opacity="0.26"></stop><stop offset="0.74" stop-color="#e3e2e7" stop-opacity="0.4"></stop><stop offset="0.87" stop-color="#d6d8e4" stop-opacity="0.58"></stop><stop offset="0.99" stop-color="#c8cde0" stop-opacity="0.79"></stop><stop offset="1" stop-color="#c7cce0" stop-opacity="0.8"></stop></linearGradient><linearGradient gradientUnits="userSpaceOnUse" id="未命名的渐变_35-3" node-id="17" spreadMethod="pad" x1="-50.829998" x2="4.9399996" y1="-898.38995" y2="-954.1699"><stop offset="0" stop-color="#fff9ef" stop-opacity="0"></stop><stop offset="0.17" stop-color="#fef8ef" stop-opacity="0.02"></stop><stop offset="0.32" stop-color="#fbf5ee" stop-opacity="0.06"></stop><stop offset="0.46" stop-color="#f5f1ec" stop-opacity="0.14"></stop><stop offset="0.6" stop-color="#edebea" stop-opacity="0.26"></stop><stop offset="0.74" stop-color="#e3e2e7" stop-opacity="0.4"></stop><stop offset="0.87" stop-color="#d6d8e4" stop-opacity="0.58"></stop><stop offset="0.99" stop-color="#c8cde0" stop-opacity="0.79"></stop><stop offset="1" stop-color="#c7cce0" stop-opacity="0.8"></stop></linearGradient></defs><path d="M 396.00 237.72 C 396.00 263.40 330.63 284.22 250.00 284.22 C 169.37 284.22 104.00 263.40 104.00 237.72 C 104.00 212.04 169.37 191.22 250.00 191.22 C 330.63 191.22 396.00 212.04 396.00 237.72 Z" fill="url(#未命名的渐变_50)" fill-rule="nonzero" node-id="114" stroke="none" target-height="93" target-width="292" target-x="104" target-y="191.22"></path><g node-id="143"><path d="M 108.85 89.86 L 108.85 89.86 L 110.49 91.84 L 111.70 93.94 L 112.50 96.21 L 112.90 98.58 L 112.90 100.94 L 112.50 103.31 L 111.70 105.58 L 110.49 107.68 L 108.85 109.66 L 57.94 160.57 L 55.97 162.21 L 53.86 163.41 L 51.59 164.22 L 49.22 164.62 L 46.86 164.62 L 44.49 164.22 L 42.23 163.41 L 40.12 162.21 L 38.14 160.57 L 38.14 160.57 L 36.50 158.60 L 35.30 156.49 L 34.50 154.22 L 34.09 151.85 L 34.09 149.49 L 34.50 147.12 L 35.30 144.85 L 36.50 142.75 L 38.14 140.77 L 89.05 89.86 L 91.03 88.22 L 93.14 87.02 L 95.40 86.22 L 97.78 85.81 L 100.13 85.81 L 102.51 86.22 L 104.77 87.02 L 106.88 88.22 L 108.85 89.86 Z" fill="url(#未命名的渐变_35)" fill-rule="nonzero" group-id="1" node-id="118" stroke="none" target-height="78.81137" target-width="78.811386" target-x="34.092743" target-y="85.81056"></path></g><g node-id="144"><path d="M 443.86 148.86 L 443.86 148.86 L 445.49 150.84 L 446.70 152.94 L 447.50 155.21 L 447.91 157.58 L 447.91 159.94 L 447.50 162.31 L 446.70 164.58 L 445.49 166.68 L 443.86 168.66 L 392.94 219.57 L 390.97 221.21 L 388.86 222.41 L 386.60 223.22 L 384.22 223.62 L 381.87 223.62 L 379.49 223.22 L 377.23 222.41 L 375.12 221.21 L 373.14 219.57 L 373.14 219.57 L 371.51 217.60 L 370.30 215.49 L 369.50 213.22 L 369.09 210.85 L 369.09 208.49 L 369.50 206.12 L 370.30 203.86 L 371.51 201.75 L 373.14 199.77 L 424.06 148.86 L 426.03 147.22 L 428.14 146.02 L 430.40 145.22 L 432.78 144.81 L 435.13 144.81 L 437.51 145.22 L 439.77 146.02 L 441.88 147.22 L 443.86 148.86 Z" fill="url(#未命名的渐变_35-2)" fill-rule="nonzero" group-id="2" node-id="123" stroke="none" target-height="78.81143" target-width="78.8114" target-x="369.09418" target-y="144.81061"></path></g><g node-id="145"><path d="M 461.86 19.86 L 461.86 19.86 L 463.50 21.84 L 464.70 23.94 L 465.50 26.21 L 465.91 28.58 L 465.91 30.94 L 465.50 33.31 L 464.70 35.58 L 463.50 37.69 L 461.86 39.66 L 410.95 90.57 L 408.97 92.21 L 406.87 93.42 L 404.60 94.22 L 402.23 94.62 L 399.87 94.62 L 397.50 94.22 L 395.23 93.42 L 393.12 92.21 L 391.15 90.57 L 391.15 90.57 L 389.51 88.60 L 388.31 86.49 L 387.50 84.22 L 387.10 81.85 L 387.10 79.49 L 387.50 77.12 L 388.31 74.86 L 389.51 72.75 L 391.15 70.77 L 442.06 19.86 L 444.04 18.22 L 446.14 17.02 L 448.41 16.22 L 450.78 15.81 L 453.14 15.81 L 455.51 16.22 L 457.78 17.02 L 459.88 18.22 L 461.86 19.86 Z" fill="url(#未命名的渐变_35-3)" fill-rule="nonzero" group-id="3" node-id="128" stroke="none" target-height="78.81137" target-width="78.8114" target-x="387.09888" target-y="15.811768"></path></g><path d="M 301.85 68.06 L 275.26 69.06 C 275.29 68.73 275.31 68.39 275.31 68.06 L 275.31 68.06 C 275.31 65.33 274.22 62.71 272.29 60.77 C 270.36 58.84 267.73 57.76 265.00 57.76 L 262.42 57.76 C 262.42 50.63 256.64 44.85 249.51 44.85 C 242.39 44.85 236.61 50.63 236.61 57.76 L 234.00 57.76 C 228.33 57.76 223.73 62.33 223.70 68.00 L 223.70 68.00 C 223.70 68.99 223.85 69.97 224.14 70.91 L 199.00 71.81 C 196.17 71.80 193.86 74.09 193.84 76.92 L 190.06 216.80 C 190.06 219.61 190.77 225.33 199.06 224.98 L 304.84 224.98 C 307.67 224.99 309.98 222.70 310.00 219.87 L 310.00 76.87 C 310.04 72.24 306.47 68.38 301.85 68.06 Z M 249.50 50.06 C 253.72 50.10 257.11 53.55 257.08 57.77 C 257.05 61.99 253.61 65.39 249.39 65.38 C 245.17 65.36 241.76 61.94 241.76 57.72 C 241.81 53.48 245.27 50.08 249.51 50.11 Z" fill="#c7cce0" fill-rule="nonzero" node-id="131" stroke="none" target-height="180.475" target-width="119.97766" target-x="190.06" target-y="44.855"></path><path d="M 301.00 68.00 L 272.74 68.00 C 272.69 62.34 268.08 57.78 262.42 57.79 L 259.84 57.79 C 259.84 50.66 254.06 44.88 246.94 44.88 C 239.81 44.88 234.03 50.66 234.03 57.79 L 231.45 57.79 C 225.78 57.77 221.17 62.33 221.12 68.00 L 195.12 68.00 C 192.31 68.02 190.04 70.27 190.00 73.08 L 190.00 216.00 C 190.02 218.83 192.33 221.12 195.16 221.11 L 301.00 221.11 C 303.83 221.12 306.14 218.83 306.16 216.00 L 306.16 73.00 C 306.08 70.21 303.79 67.99 301.00 68.00 Z M 247.00 50.13 C 251.22 50.17 254.61 53.62 254.58 57.84 C 254.55 62.06 251.11 65.46 246.89 65.45 C 242.67 65.43 239.26 62.01 239.26 57.79 C 239.27 53.56 242.70 50.13 246.93 50.11 Z" fill="#e2e4ed" fill-rule="nonzero" node-id="133" stroke="none" target-height="176.23059" target-width="116.16" target-x="190" target-y="44.885"></path><path d="M 200.45 76.49 L 295.68 76.49 C 297.89 76.49 299.68 78.28 299.68 80.49 L 299.68 208.65 C 299.68 210.86 297.89 212.65 295.68 212.65 L 200.45 212.65 C 198.24 212.65 196.45 210.86 196.45 208.65 L 196.45 80.49 C 196.45 78.28 198.24 76.49 200.45 76.49 Z" fill="#ffffff" fill-rule="nonzero" node-id="135" stroke="none" target-height="136.16" target-width="103.229996" target-x="196.45" target-y="76.49"></path><path d="M 218.27 99.52 L 277.87 99.52 C 279.23 99.52 280.33 100.62 280.33 101.98 L 280.33 103.44 C 280.33 104.80 279.23 105.90 277.87 105.90 L 218.27 105.90 C 216.91 105.90 215.81 104.80 215.81 103.44 L 215.81 101.98 C 215.81 100.62 216.91 99.52 218.27 99.52 Z" fill="#c7cce0" fill-rule="nonzero" node-id="137" stroke="none" target-height="6.380005" target-width="64.51999" target-x="215.81" target-y="99.52"></path><path d="M 218.27 121.22 L 277.87 121.22 C 279.23 121.22 280.33 122.32 280.33 123.68 L 280.33 125.14 C 280.33 126.50 279.23 127.60 277.87 127.60 L 218.27 127.60 C 216.91 127.60 215.81 126.50 215.81 125.14 L 215.81 123.68 C 215.81 122.32 216.91 121.22 218.27 121.22 Z" fill="#c7cce0" fill-rule="nonzero" node-id="139" stroke="none" target-height="6.3799973" target-width="64.51999" target-x="215.81" target-y="121.22"></path><path d="M 218.27 142.92 L 277.87 142.92 C 279.23 142.92 280.33 144.02 280.33 145.38 L 280.33 146.84 C 280.33 148.20 279.23 149.30 277.87 149.30 L 218.27 149.30 C 216.91 149.30 215.81 148.20 215.81 146.84 L 215.81 145.38 C 215.81 144.02 216.91 142.92 218.27 142.92 Z" fill="#c7cce0" fill-rule="nonzero" node-id="141" stroke="none" target-height="6.380005" target-width="64.51999" target-x="215.81" target-y="142.92"></path></svg>