<?xml version="1.0" standalone="no"?><!DOCTYPE svg PUBLIC "-//W3C//DTD SVG 1.1//EN" "http://www.w3.org/Graphics/SVG/1.1/DTD/svg11.dtd"><svg height="300" node-id="1" sillyvg="true" template-height="300" template-width="500" version="1.1" viewBox="0 0 500 300" width="500" xmlns="http://www.w3.org/2000/svg" xmlns:xlink="http://www.w3.org/1999/xlink"><defs node-id="33"><linearGradient gradientUnits="userSpaceOnUse" id="未命名的渐变_50" node-id="5" spreadMethod="pad" x1="250" x2="250" y1="284.22" y2="191.22"><stop offset="0" stop-color="#fff9ef" stop-opacity="0"></stop><stop offset="0.17" stop-color="#fef8ef" stop-opacity="0.02"></stop><stop offset="0.32" stop-color="#fbf5ee" stop-opacity="0.06"></stop><stop offset="0.46" stop-color="#f5f1ec" stop-opacity="0.14"></stop><stop offset="0.6" stop-color="#edebea" stop-opacity="0.26"></stop><stop offset="0.74" stop-color="#e3e2e7" stop-opacity="0.4"></stop><stop offset="0.87" stop-color="#d6d8e4" stop-opacity="0.58"></stop><stop offset="0.99" stop-color="#c8cde0" stop-opacity="0.79"></stop><stop offset="1" stop-color="#c7cce0" stop-opacity="0.8"></stop></linearGradient><linearGradient gradientUnits="userSpaceOnUse" id="未命名的渐变_35" node-id="15" spreadMethod="pad" x1="307.00998" x2="362.77997" y1="47.729996" y2="-8.039999"><stop offset="0" stop-color="#fff9ef" stop-opacity="0"></stop><stop offset="0.17" stop-color="#fef8ef" stop-opacity="0.02"></stop><stop offset="0.32" stop-color="#fbf5ee" stop-opacity="0.06"></stop><stop offset="0.46" stop-color="#f5f1ec" stop-opacity="0.14"></stop><stop offset="0.6" stop-color="#edebea" stop-opacity="0.26"></stop><stop offset="0.74" stop-color="#e3e2e7" stop-opacity="0.4"></stop><stop offset="0.87" stop-color="#d6d8e4" stop-opacity="0.58"></stop><stop offset="0.99" stop-color="#c8cde0" stop-opacity="0.79"></stop><stop offset="1" stop-color="#c7cce0" stop-opacity="0.8"></stop></linearGradient><linearGradient gradientUnits="userSpaceOnUse" id="未命名的渐变_35-2" node-id="16" spreadMethod="pad" x1="585.6099" x2="641.37994" y1="-147.42998" y2="-203.19998"><stop offset="0" stop-color="#fff9ef" stop-opacity="0"></stop><stop offset="0.17" stop-color="#fef8ef" stop-opacity="0.02"></stop><stop offset="0.32" stop-color="#fbf5ee" stop-opacity="0.06"></stop><stop offset="0.46" stop-color="#f5f1ec" stop-opacity="0.14"></stop><stop offset="0.6" stop-color="#edebea" stop-opacity="0.26"></stop><stop offset="0.74" stop-color="#e3e2e7" stop-opacity="0.4"></stop><stop offset="0.87" stop-color="#d6d8e4" stop-opacity="0.58"></stop><stop offset="0.99" stop-color="#c8cde0" stop-opacity="0.79"></stop><stop offset="1" stop-color="#c7cce0" stop-opacity="0.8"></stop></linearGradient><linearGradient gradientUnits="userSpaceOnUse" id="未命名的渐变_35-3" node-id="17" spreadMethod="pad" x1="507.11996" x2="562.88995" y1="-251.36998" y2="-307.14996"><stop offset="0" stop-color="#fff9ef" stop-opacity="0"></stop><stop offset="0.17" stop-color="#fef8ef" stop-opacity="0.02"></stop><stop offset="0.32" stop-color="#fbf5ee" stop-opacity="0.06"></stop><stop offset="0.46" stop-color="#f5f1ec" stop-opacity="0.14"></stop><stop offset="0.6" stop-color="#edebea" stop-opacity="0.26"></stop><stop offset="0.74" stop-color="#e3e2e7" stop-opacity="0.4"></stop><stop offset="0.87" stop-color="#d6d8e4" stop-opacity="0.58"></stop><stop offset="0.99" stop-color="#c8cde0" stop-opacity="0.79"></stop><stop offset="1" stop-color="#c7cce0" stop-opacity="0.8"></stop></linearGradient></defs><path d="M 396.00 237.72 C 396.00 263.40 330.63 284.22 250.00 284.22 C 169.37 284.22 104.00 263.40 104.00 237.72 C 104.00 212.04 169.37 191.22 250.00 191.22 C 330.63 191.22 396.00 212.04 396.00 237.72 Z" fill="url(#未命名的渐变_50)" fill-rule="nonzero" node-id="116" stroke="none" target-height="93" target-width="292" target-x="104" target-y="191.22"></path><g node-id="149"><path d="M 108.85 89.86 L 108.85 89.86 L 110.49 91.84 L 111.70 93.94 L 112.50 96.21 L 112.90 98.58 L 112.90 100.94 L 112.50 103.31 L 111.70 105.58 L 110.49 107.68 L 108.85 109.66 L 57.94 160.57 L 55.97 162.21 L 53.86 163.41 L 51.59 164.22 L 49.22 164.62 L 46.86 164.62 L 44.49 164.22 L 42.23 163.41 L 40.12 162.21 L 38.14 160.57 L 38.14 160.57 L 36.50 158.60 L 35.30 156.49 L 34.50 154.22 L 34.09 151.85 L 34.09 149.49 L 34.50 147.12 L 35.30 144.85 L 36.50 142.75 L 38.14 140.77 L 89.05 89.86 L 91.03 88.22 L 93.14 87.02 L 95.40 86.22 L 97.78 85.81 L 100.13 85.81 L 102.51 86.22 L 104.77 87.02 L 106.88 88.22 L 108.85 89.86 Z" fill="url(#未命名的渐变_35)" fill-rule="nonzero" group-id="1" node-id="120" stroke="none" target-height="78.81137" target-width="78.811386" target-x="34.092743" target-y="85.81056"></path></g><g node-id="150"><path d="M 443.86 148.86 L 443.86 148.86 L 445.49 150.84 L 446.70 152.94 L 447.50 155.21 L 447.91 157.58 L 447.91 159.94 L 447.50 162.31 L 446.70 164.58 L 445.49 166.68 L 443.86 168.66 L 392.94 219.57 L 390.97 221.21 L 388.86 222.41 L 386.60 223.22 L 384.22 223.62 L 381.87 223.62 L 379.49 223.22 L 377.23 222.41 L 375.12 221.21 L 373.14 219.57 L 373.14 219.57 L 371.51 217.60 L 370.30 215.49 L 369.50 213.22 L 369.09 210.85 L 369.09 208.49 L 369.50 206.12 L 370.30 203.86 L 371.51 201.75 L 373.14 199.77 L 424.06 148.86 L 426.03 147.22 L 428.14 146.02 L 430.40 145.22 L 432.78 144.81 L 435.13 144.81 L 437.51 145.22 L 439.77 146.02 L 441.88 147.22 L 443.86 148.86 Z" fill="url(#未命名的渐变_35-2)" fill-rule="nonzero" group-id="2" node-id="125" stroke="none" target-height="78.81143" target-width="78.8114" target-x="369.09418" target-y="144.81061"></path></g><g node-id="151"><path d="M 461.86 19.86 L 461.86 19.86 L 463.50 21.84 L 464.70 23.94 L 465.50 26.21 L 465.91 28.58 L 465.91 30.94 L 465.50 33.31 L 464.70 35.58 L 463.50 37.69 L 461.86 39.66 L 410.95 90.57 L 408.97 92.21 L 406.87 93.42 L 404.60 94.22 L 402.23 94.62 L 399.87 94.62 L 397.50 94.22 L 395.23 93.42 L 393.12 92.21 L 391.15 90.57 L 391.15 90.57 L 389.51 88.60 L 388.31 86.49 L 387.50 84.22 L 387.10 81.85 L 387.10 79.49 L 387.50 77.12 L 388.31 74.86 L 389.51 72.75 L 391.15 70.77 L 442.06 19.86 L 444.04 18.22 L 446.14 17.02 L 448.41 16.22 L 450.78 15.81 L 453.14 15.81 L 455.51 16.22 L 457.78 17.02 L 459.88 18.22 L 461.86 19.86 Z" fill="url(#未命名的渐变_35-3)" fill-rule="nonzero" group-id="3" node-id="130" stroke="none" target-height="78.81137" target-width="78.8114" target-x="387.09888" target-y="15.811768"></path></g><path d="M 304.89 230.00 L 200.21 230.00 C 190.00 230.00 190.39 222.65 190.39 219.79 L 195.10 79.10 C 195.08 76.26 197.37 73.93 200.21 73.90 L 299.79 70.00 C 302.60 70.00 310.00 71.00 310.00 79.11 L 310.00 224.80 C 310.02 227.64 307.73 229.97 304.89 230.00 Z" fill="#c7cce0" fill-rule="nonzero" node-id="133" stroke="none" target-height="160" target-width="120.01669" target-x="190" target-y="70"></path><path d="M 194.00 70.00 L 300.89 70.00 C 303.10 70.00 304.89 71.79 304.89 74.00 L 304.89 222.10 C 304.89 224.31 303.10 226.10 300.89 226.10 L 194.00 226.10 C 191.79 226.10 190.00 224.31 190.00 222.10 L 190.00 74.00 C 190.00 71.79 191.79 70.00 194.00 70.00 Z" fill="#e2e4ed" fill-rule="nonzero" node-id="135" stroke="none" target-height="156.1" target-width="114.890015" target-x="190" target-y="70"></path><path d="M 200.38 78.67 L 294.51 78.67 C 296.72 78.67 298.51 80.46 298.51 82.67 L 298.51 213.42 C 298.51 215.63 296.72 217.42 294.51 217.42 L 200.38 217.42 C 198.17 217.42 196.38 215.63 196.38 213.42 L 196.38 82.67 C 196.38 80.46 198.17 78.67 200.38 78.67 Z" fill="#ffffff" fill-rule="nonzero" node-id="137" stroke="none" target-height="138.75" target-width="102.130005" target-x="196.38" target-y="78.67"></path><path d="M 222.00 165.51 C 219.89 169.23 222.89 179.51 222.89 179.51 C 222.89 179.51 233.16 176.99 235.27 173.27 L 257.00 135.00 L 243.73 127.20 Z" fill="#e2e4ed" fill-rule="nonzero" node-id="139" stroke="none" target-height="52.309998" target-width="37.11" target-x="219.89" target-y="127.2"></path><path d="M 258.00 117.59 C 256.24 116.56 254.14 116.29 252.17 116.83 C 250.20 117.36 248.53 118.67 247.54 120.45 L 246.26 122.70 L 259.53 130.50 L 260.81 128.25 C 262.91 124.52 261.67 119.80 258.00 117.59 Z" fill="#e2e4ed" fill-rule="nonzero" node-id="141" stroke="none" target-height="14.211693" target-width="16.651474" target-x="246.26" target-y="116.28831"></path><path d="M 248.08 175.65 C 248.08 177.80 246.37 179.55 244.25 179.55 C 242.13 179.55 240.42 177.80 240.42 175.65 C 240.42 173.50 242.13 171.75 244.25 171.75 C 246.37 171.75 248.08 173.50 248.08 175.65 Z" fill="#e2e4ed" fill-rule="nonzero" node-id="143" stroke="none" target-height="7.800003" target-width="7.6600037" target-x="240.42" target-y="171.75"></path><path d="M 260.85 175.65 C 260.85 177.80 259.14 179.55 257.02 179.55 C 254.90 179.55 253.19 177.80 253.19 175.65 C 253.19 173.50 254.90 171.75 257.02 171.75 C 259.14 171.75 260.85 173.50 260.85 175.65 Z" fill="#e2e4ed" fill-rule="nonzero" node-id="145" stroke="none" target-height="7.800003" target-width="7.6600037" target-x="253.19" target-y="171.75"></path><path d="M 273.61 175.65 C 273.61 177.80 271.90 179.55 269.78 179.55 C 267.66 179.55 265.95 177.80 265.95 175.65 C 265.95 173.50 267.66 171.75 269.78 171.75 C 271.90 171.75 273.61 173.50 273.61 175.65 Z" fill="#e2e4ed" fill-rule="nonzero" node-id="147" stroke="none" target-height="7.800003" target-width="7.659973" target-x="265.95" target-y="171.75"></path></svg>